<?xml version="1.0" encoding="UTF-8"?>
<svg id="Layer_1" data-name="Layer 1" xmlns="http://www.w3.org/2000/svg" viewBox="0 0 256 256">
  <defs>
    <style>
      .cls-1 {
        fill: #1d1d1d;
      }

      .cls-2 {
        fill: #fff;
      }
    </style>
  </defs>
  <rect class="cls-2" x="0" width="256.01" height="256" rx="57.5" ry="57.5"/>
  <g>
    <path class="cls-1" d="M63,229.55h175.28l-10.39-10.22h-52.54l-2.87-2.82-18.78-18.48c24.86-10.06,42.4-34.44,42.4-62.91l-.37-7.09v-.02s0-.06,0-.06l-.92-17.82-1.6-30.76,25.11-8.99-25.77-3.73-5.23-.76h0c-7.9-13.71-22.69-22.94-39.65-22.94-15.49,0-29.18,7.7-37.45,19.49l-1.41,2.51c3.08.85,6.08,1.89,8.97,3.13.72.31,1.43.62,2.13.95.38-.47.76-.93,1.16-1.37,6.17-6.94,15.18-11.31,25.2-11.31,18.63,0,33.73,15.1,33.73,33.73,0,.39,0,.78-.02,1.16-.07,2-.31,3.95-.71,5.85-4.87-2.99-10.14-5.37-15.72-7.06,4.86,5,8.84,10.86,11.69,17.33,1.97,4.47,3.41,9.22,4.21,14.19.51,3.1.77,6.3.77,9.54,0,28.23-19.85,51.82-46.36,57.58,0,0,0,0,0,0q-1.05.23,0,0s0,0,0,0c16.06-12.68,26.47-32.18,26.89-54.13v-.09c0-.12,0-.24,0-.36,0-.31,0-.62,0-.93,0-.11,0-.22,0-.33v-.11c0-.07,0-.15,0-.22,0-.1,0-.2,0-.3,0-.04,0-.08,0-.12v-.03h0v-.12c0-.34-.02-.68-.04-1.01-.16-3.33-.67-6.56-1.5-9.67-4.1-15.38-15.94-27.62-31.1-32.25h0c-4.28-1.31-8.82-2.02-13.53-2.02-.64,0-1.27.01-1.91.04,0-.01,0-.02,0-.04h-16.21l-2.8,5-4.67,8.32h21.41c.22,0,.45,0,.67,0h3.02c.02.07.04.14.07.22,4.93.64,9.62,2.68,13.47,5.91.05.04.12.09.17.14.59.5,1.15,1.02,1.7,1.58.18.18.36.37.53.55.18.2.36.4.54.6.14.16.29.33.42.5.05.05.1.11.14.17.16.19.32.39.46.59.13.17.26.34.39.52.07.09.13.18.19.27.12.16.24.34.35.5.03.04.06.08.08.12.1.15.2.3.3.45.13.21.26.42.39.63.02.03.04.06.06.1.1.16.2.33.29.5.21.37.41.74.6,1.13.78,1.55,1.38,3.13,1.83,4.74,0,.01,0,.03.01.05.18.65.35,1.3.48,1.97.23,1.11.39,2.24.47,3.39.16,2.26.03,4.58-.42,6.91-.07.39-.16.78-.26,1.16.18.05.36.09.53.14-.18-.04-.36-.09-.53-.13-1.54,6.4-5.34,11.71-10.37,15.26-2.15,1.51-4.53,2.71-7.05,3.52l-33.86,16.93-6.34,3.17h0l-.55.28-1.94.97-30.42,15.21-8.59,4.29h0s0,0,0,0l-14.96,26.71-5.73,10.22h35.9l5.58-10.22,10.31-18.88,7.66-14.03,16.49,12.87h.01s5.27,4.13,5.27,4.13h0l20.36,15.9h-42.1l-13.08,10.22ZM116.03,201.86,128.26,202.96c3.99,0,7.9-.35,11.7-1l17.65,17.37h-19.22l-22.36-17.47c3.96.72,8.05,1.1,12.22,1.1Z"/>
    <path class="cls-1" d="M158.77,70.94c0-.06,0-.12,0-.18,0-1.37.51-2.63,1.36-3.58.49-.56,1.1-1.01,1.79-1.32-1.29-.7-2.77-1.11-4.34-1.11-2.71,0-5.14,1.18-6.82,3.06-1.44,1.61-2.31,3.74-2.31,6.07,0,.1,0,.21,0,.31.16,4.89,4.18,8.82,9.12,8.82,2.04,0,3.93-.67,5.45-1.8,1.8-1.34,3.09-3.34,3.52-5.63-.72.36-1.54.57-2.4.57-2.91,0-5.28-2.31-5.37-5.2Z"/>
    <path class="cls-1" d="M65.42,160.73l3.88-1.94,5.25-2.63,1.5-.75,17.82-8.91,21.18-10.59c4.09-2.05,6.05-6.63,4.94-10.88h0c-.16-.63-.39-1.25-.69-1.86-1.35-2.7-3.82-4.48-6.56-5.05-.06-.06-.12-.13-.17-.2h-33.43l-10.58,18.87-4.54,8.1-2.21,3.95-10.66,19.02,14.27-7.13h0Z"/>
  </g>
</svg>