<?xml version="1.0" encoding="UTF-8"?>
<svg id="BACKGROUND" xmlns="http://www.w3.org/2000/svg" viewBox="0 0 128 96">
  <defs>
    <style>
      .cls-1 {
        fill: #272525;
      }
    </style>
  </defs>
  <g>
    <path class="cls-1" d="M92.54,16.56c-.9-.67-1.94-1.14-2.91-1.7l-.51-1.9c-.41-.96-1.38-2.8-3.37-3.89-.8-.44-2.41-.78-3.25-.82-4.11-.21-7.49.95-9.45,1.86-.88.41-1.76.95-2.61,1.67-2.09,1.76-3.16,3.86-3.72,5.3h0c-.96,2.51-3.77,2.98-5.91,4.15-2.91,1.59-5.39,3.78-7.61,6.22-.1.11-.2.22-.3.33-2.22,2.51-5.12,6.53-7.49,9.55-.53.67-1.03,1.3-1.49,1.85-.46.26-1.02.53-.96,1.16.14,1.35,2.3-.02,3.01.1-.14.34-.44.44-.67.66-2.28,2.21-4.5,4.5-6.69,6.78-1.21,1.26-3.62,3.27-3.97,4.98-.46,2.26,1.5,3.65,3.38,2.22,4.27-3.56,10.26-12.53,16.15-12.92,1.52-.1,3.03.43,4.53.61.98.12,1.98.1,2.96.23,1.65,1.43,2.81,3.19,3.89,5.07l-.08.16c-.39.18-.8.47-1.01.85-.09.15-.15.41-.19.59-6.79,1.59-13.05,4.02-18.42,7.21-.51.3-.68.97-.38,1.48.2.34.56.53.93.53.19,0,.38-.05.55-.15,5.97-3.54,13.09-6.13,20.84-7.61.84.36,1.31,1.52.98,2.35-.17.44-.9.88-.9,1.22,0,.79.95.76,1.46.49,1.58-.83,1.45-3.11.46-4.41,1.02-.17,2.04-.31,3.08-.44.03.02.06.04.09.07.6.54.76,1.7.35,2.39-.26.44-1.13.71-.4,1.38.63.58,1.56-.2,1.9-.76.64-1.05.49-2.23,0-3.29,5.33-.53,10.57-.5,15.59.09.59.07,1.13-.36,1.2-.95.07-.59-.36-1.13-.95-1.2-5.17-.6-10.54-.64-16.02-.1-.27-.53-.62-.9-1.17-1.17-.18-.09-.39-.08-.55-.15-.31-.14-3.58-3.56-3.95-4.03-.1-.13-.24-.26-.22-.44.15,0,.3,0,.45-.04,6.76-1.79,12.84-6.76,14.86-13.59.92-3.13.68-6.91,3.44-9.15,1.61-1.31,3.41-1.06,5.27-1.55,1.21-.32.38-.81-.24-1.27ZM62.05,36.79s.02-.04.02-.06c.02.03.05.06.1.07.09.02.16-.03.19-.1.02.08.09.15.18.14,0,0-.01,0-.02,0-.06.03-.09.08-.09.13-.04-.02-.09-.02-.14,0-.02,0-.03.02-.04.03-.16-.09-.35.12-.21.27,0,0,.01,0,.02.01-.04.04-.06.1-.03.17.07.17.3.11.33-.04.03.12.18.21.29.09.01-.01.02-.03.03-.04.01.02.03.03.05.04-.04.03-.07.07-.08.12-.01.02-.02.04-.02.06-.13,0-.18.14-.15.24,0,0-.01.02-.02.03-.05,0-.1.02-.14.07,0,.01-.01.03-.02.04-.15.04-.3.08-.44.12.02-.04.02-.08,0-.12.04-.08,0-.19-.08-.23,0,0,.02-.02.02-.02.06.04.14.05.21-.02.13-.13-.02-.32-.16-.29.07-.06.1-.18.03-.25.06-.04.1-.11.06-.2-.05-.13-.2-.13-.28-.05,0-.03-.01-.07-.03-.1.05-.07.05-.17-.03-.23.01,0,.02,0,.04.01,0,0,.02,0,.02,0,.02.02.04.03.06.04.04.12.22.18.3.04ZM62.36,37.37s0-.02,0-.04c0-.01,0-.02-.02-.03.02,0,.03,0,.05,0-.02.02-.03.05-.03.07ZM62.53,37.15s.01,0,.02.01c.02.02.03.04.06.05.02.01.05.02.07.02-.01.01-.03.03-.03.05-.04-.04-.09-.06-.15-.05.02-.02.02-.05.03-.08ZM66.28,36.34s0,.06,0,.09c-.03-.03-.06-.04-.1-.04.03,0,.06-.01.08-.03,0,0,0,0,.01-.01ZM65.59,38.7s.01-.03.02-.05c.04.02.09.02.13,0,0,0,0,0,0,0,.02.04.06.06.09.07-.03,0-.07.03-.09.07-.1.15.07.3.2.25.01.02.03.03.05.05,0,.04.04.08.09.11.03.01.06.02.09.02-.02.02-.04.05-.05.08-.02-.03-.05-.05-.09-.06-.09-.02-.15.03-.18.09-.1-.08-.29-.04-.29.12,0,.09.05.14.11.16-.01,0-.02.01-.03.02-.09.04-.18.08-.28.12-.05,0-.09.02-.13.06-.06.03-.12.05-.17.08,0,0-.02-.02-.03-.03,0-.06-.03-.13-.08-.17.02-.06,0-.12-.04-.16.07-.06.08-.15.04-.22.05-.08.03-.2-.08-.24,0,0,0-.02,0-.02,0-.05-.03-.09-.09-.12-.11-.05-.2.01-.23.1,0,0,0,.01,0,.02,0,.02,0,.03,0,.05,0,0,0,0,0,0,0,.03.01.06.03.08-.03.02-.05.06-.06.09-.04-.08-.14-.12-.23-.06-.01,0-.02.02-.03.03-.05-.07-.14-.11-.23-.05-.03.02-.05.05-.06.08,0-.02.01-.03.01-.06,0-.02,0-.03,0-.05.01,0,.02,0,.03-.01.01,0,.03,0,.05,0,.14-.03.15-.19.08-.28.02,0,.03-.01.05-.02,0,0,0,0,0,0,.1-.04.2-.08.3-.13,0,.09.05.18.16.18.1,0,.15-.07.16-.15.05.07.14.11.23.05.01,0,.02-.02.03-.03.1.08.22,0,.26-.09,0,0,0,0,0,0,.06.09.21.13.29,0ZM66.09,38.51s.07.07.13.07c.08,0,.14-.05.16-.11,0,0,0,0,.02,0,.09.02.15-.02.18-.09.04.05.1.07.16.06,0,.02,0,.04.01.07,0,.02.02.04.03.05-.06.02-.11.07-.11.13-.03-.11-.18-.2-.29-.09-.02.02-.03.04-.04.06-.06-.04-.14-.04-.2.03-.02.02-.03.04-.04.07-.03,0-.06,0-.09,0-.03-.03-.06-.05-.1-.06.08-.02.14-.09.14-.17.01-.01.03-.02.04-.04ZM54.37,39.79s.02.03.03.04c-.05.01-.1.03-.15.05-.01-.03-.03-.05-.06-.07,0-.02,0-.03-.01-.04,0,0,0,0,0-.01.05.05.12.07.18.04ZM55.33,39.5s.08-.08.09-.14c.06-.02.1-.07.11-.13.02,0,.05.01.08,0,0,.01-.01.03-.01.05-.01.11.06.17.15.19-.03,0-.07.02-.1.02,0,0-.02-.01-.03-.02-.09-.03-.15,0-.19.07-.03,0-.06.02-.09.02,0-.02,0-.05,0-.07ZM59.08,38.67s.03.02.05.03c.04.01.07.01.1,0-.01.03-.02.06-.01.09-.04,0-.08.02-.13.02.02-.05.02-.1,0-.14ZM61.63,37.16s0,.03,0,.05c0,.02.02.04.03.05-.03.03-.06.07-.06.11,0,0-.01-.02-.02-.02,0,0-.02-.01-.03-.02,0-.04-.02-.09-.05-.12.05,0,.09-.02.12-.05ZM61.64,37.5s0,0,0,.01c0,0,0,0-.01,0,0,0,0-.01,0-.02ZM64.75,38.63s-.01-.01-.02-.02c.01,0,.02-.01.03-.02,0,.01-.01.02-.01.04ZM64.19,39.49s.02-.02.03-.03c.02.03.05.05.08.06-.08.02-.13.11-.12.19-.05.08-.01.2.08.24-.08.05-.1.17-.05.25-.04.01-.07.03-.11.04-.03-.03-.06-.05-.1-.05-.02-.14-.22-.22-.31-.07,0,0,0,.01,0,.02.01-.08-.03-.17-.13-.19-.22-.05-.29.29-.07.34.09.02.15-.03.18-.09,0,.03,0,.06.02.08-.04.02-.07.07-.08.12-.11.03-.22.06-.33.09.05-.06.06-.15-.01-.22-.16-.15-.4.09-.24.25.01.01.03.02.04.03,0,0,0,0,0,0-.02,0-.03,0-.05,0,0,0-.01,0-.02,0-.12.03-.24.05-.36.08,0,0,0,0,0-.01.02-.02.03-.03.04-.05.14.03.26-.14.18-.26,0-.04,0-.09-.03-.12.07,0,.14-.05.16-.11,0-.01.02-.02.03-.03,0,0,0,0,0,0,0,0,0,0,0,0,0,0,0,0,0,0,.07-.08.03-.18-.03-.24.08-.03.12-.1.11-.18.03.02.06.02.09.02.07.03.14,0,.19-.04.06.08.16.09.23.04.12.02.26-.11.19-.24.06,0,.11-.03.14-.08-.03.13.11.28.26.19ZM66.31,39.18s-.04,0-.06,0c.05-.04.08-.11.07-.17.01,0,.03.02.04.02.03,0,.05,0,.08,0-.02.05-.01.1.02.14-.02.02-.03.04-.04.06,0,0,0,0-.01,0-.02-.03-.05-.05-.09-.06ZM68.27,40.21s-.01-.01-.02-.02c.03-.02.06-.06.07-.1.02.03.05.05.09.07,0,0,0,0,0,0,0,.01,0,.03,0,.04-.05-.02-.1-.02-.14,0ZM69.31,39.54s-.02.09,0,.13c-.11-.05-.27,0-.26.16,0,.02,0,.03.01.04,0,0,0,.01,0,.02-.11-.05-.26.01-.25.16,0,.04.02.06.03.08-.03,0-.07.02-.1.03,0-.02,0-.04,0-.06.06-.04.09-.12.06-.2.04-.04.06-.1.03-.17-.05-.14-.21-.13-.29-.04-.09,0-.15.07-.16.16-.04.02-.06.06-.08.11-.02-.04-.06-.06-.11-.07-.2-.04-.27.24-.11.32,0,0,0,0-.01,0-.05.04-.06.08-.06.13-.1-.1-.25-.03-.28.09,0,0-.02,0-.03,0,.01-.01.03-.02.04-.04.07-.11,0-.22-.1-.25.17-.1.36-.22.54-.34.07,0,.12-.04.15-.1.07-.05.14-.1.21-.16,0,0,.01,0,.02,0,.01,0,.02-.02.03-.03.02-.02.04-.03.06-.05,0,.03,0,.05,0,.09.08.21.4.08.32-.13-.03-.08-.09-.11-.15-.1.03-.02.05-.05.08-.07.03,0,.07-.01.1-.04.06,0,.11-.04.14-.1.05.04.11.05.16.03,0,.04.01.08.03.11-.14.06-.12.25,0,.31ZM67.08,40.56s.04-.08.03-.12c.04-.02.08-.05.12-.07.04.09.16.15.26.07,0,0,0,0,0,0,.02.01.05.02.07.03-.12.03-.25.06-.37.09-.03,0-.08.02-.12.02,0,0,0,0,0,0ZM66.92,38.87s0,0,0,0c0,0,0,0,0,0,0,0,0,0,0,0ZM67,38.75s0-.02,0-.03c.01,0,.03,0,.04,0,0,0,0,0,0,.01-.02,0-.03.01-.04.02ZM66.63,38.93s-.05,0-.08,0c0,0,0-.01,0-.02.02,0,.05-.02.07-.04.03-.03.04-.07.05-.1,0,.01,0,.02,0,.03,0,.02.02.03.03.04-.03.02-.06.06-.07.09ZM60.26,40.83s.02-.02.03-.03c0,.02.02.03.03.05-.02,0-.03,0-.05,0,0,0,0,0-.01-.01ZM60.57,40.84c.06-.08.06-.22-.05-.26-.01-.05-.05-.1-.1-.12,0-.02-.02-.05-.04-.07-.05-.05-.11-.06-.16-.04-.02,0-.03,0-.05,0-.1.02-.14.11-.12.19-.03-.01-.07-.02-.11,0-.15.05-.13.23-.04.3-.08,0-.16,0-.24,0,0-.04-.01-.09-.05-.13-.07-.06-.15-.06-.21-.02,0-.05-.03-.1-.08-.13.11-.07.13-.26-.03-.31,0,0-.02,0-.03,0,0,0,0,0,0,0l.48-.11c-.02.05-.01.11.04.16.15.15.38-.07.25-.23l.57-.13c-.05.09,0,.18.07.22,0,0,0,0,0,0-.04.04-.07.1-.04.18.02.04.04.06.07.08-.07.05-.12.14-.06.23.12.19.41,0,.29-.18-.02-.02-.04-.04-.06-.05.06-.04.11-.11.07-.2,0-.02-.02-.03-.03-.05.07-.08.07-.23-.06-.28,0,0,0,0,0,0,0,0,0,0-.01,0l.34-.08s0,.01,0,.02c-.04,0-.08.01-.12.05-.09.1-.04.22.05.27-.09.11-.01.32.16.28.12-.03.14-.14.11-.23.08-.05.1-.16.06-.24.08-.05.08-.15.04-.22l.3-.07s0,.03,0,.04c-.1.02-.19.12-.14.24-.02.01-.03.03-.05.05-.09.13.04.27.16.26-.03.06-.01.13.03.18-.01-.01-.03-.02-.04-.03-.01-.15-.26-.23-.33-.05-.02.04-.02.08,0,.12-.04-.04-.09-.06-.16-.05-.14.03-.15.18-.09.27-.03.03-.05.07-.05.11-.19.01-.37.02-.56.02ZM63.62,39.25s0,.03,0,.04c-.01,0-.02,0-.03,0,0,0,0-.01,0-.02,0,0,.02-.02.02-.03ZM63.02,39.36s-.03.07-.02.11c-.01,0-.02-.01-.03-.01-.09-.02-.16.03-.19.1,0-.06-.05-.11-.12-.13-.17-.04-.25.15-.18.26,0,.06.03.12.11.15.01,0,.02,0,.03,0,0,.01,0,.03,0,.04-.06.07-.07.17,0,.23-.08.03-.11.11-.1.18-.02,0-.03,0-.05,0,.01-.08-.03-.17-.13-.19-.09-.02-.15.03-.18.1,0-.04,0-.09-.05-.13,0,0-.02-.01-.03-.02.09-.06.12-.2.03-.28.07-.05.09-.15.05-.22.32-.1.64-.2.95-.31.05.03.1.04.16,0,0,.02,0,.03,0,.05-.02,0-.03,0-.04,0-.07-.03-.15-.02-.2.06ZM61.45,40.78s0,0,0,0c0,0,0,0,0,0,0,0,0,0,0,0ZM61.47,40.55s0,0,0-.01c0,0,0,0,0,.01,0,0,0,0,0,0ZM61.74,40.72c.1-.04.16-.16.08-.26.05.05.13.07.2.02.06-.04.08-.1.08-.15.02-.02.04-.04.05-.06,0,.08.03.16.13.18.03,0,.05,0,.07,0,0,.01,0,.02,0,.03-.07.05-.07.13-.05.19-.19.03-.38.06-.58.08,0-.01.01-.02.02-.03ZM58.3,40.56s-.05.03-.06.06c0,.01,0,.02-.01.04,0,0,0,0-.01,0-.01-.04-.04-.08-.07-.11.01-.02.02-.04.02-.06l.08-.02s.03.07.06.1ZM59.15,40.55s-.03.02-.04.03c.01,0,.02-.02.03-.03,0,0,0,0,0,0ZM58.55,40.7c0-.05-.03-.1-.07-.13.08-.04.1-.11.09-.19l.34-.08c-.08.08-.09.24.05.29.06.02.12,0,.15-.02-.05.05-.06.13-.03.2-.18-.02-.35-.04-.53-.07ZM64.5,40.1c0-.06-.03-.11-.08-.14.03-.01.06-.04.08-.08.07-.03.12-.09.12-.17,0,0,0,0,0,0,.02.03.04.06.07.08-.02.07.01.15.07.19,0,0,0,.01,0,.02-.09.04-.18.07-.28.11ZM64.47,39.49s.01.03.02.04c0,.01,0,.02,0,.03-.01,0-.03,0-.04,0-.01-.01-.03-.02-.05-.03.01,0,.03,0,.04-.02.01,0,.02-.02.03-.02ZM65.17,38.41s0,0,0,0c0,0,0,0,0,0,0,0,0,0,0,0ZM63.73,39.03s0,.02,0,.03c-.04,0-.08.03-.1.07,0-.02-.01-.04-.03-.06.04-.01.08-.03.12-.04ZM59.66,38.71s0-.02,0-.02c0,0,.02,0,.02-.01,0,0,0,.02,0,.03-.01,0-.03,0-.04,0ZM59.61,38.36s0,0,0,0c0,0,0,0,0,0,0,0,0,0,0,0ZM59.44,38.46s0,0,0,0c0,0-.01,0-.02,0-.06.04-.08.09-.08.14,0,0-.01,0-.01,0,.02-.05.02-.11,0-.16.04.01.07.02.11,0ZM55.77,39.15s-.02,0-.03,0c.02-.04.02-.09,0-.14,0,0,.01,0,.02,0,0,.04.02.08.04.11-.01.01-.02.03-.03.04ZM69.73,39.87s-.08-.03-.12-.03c.02-.04.02-.09,0-.13,0,0,0,0,0,0,0,0,0,0,.01,0,0,.07.04.14.13.16,0,0,.01,0,.02,0-.02,0-.03.01-.05.02ZM69.57,39.38s-.01,0-.02,0c0-.03-.01-.06-.03-.08.01,0,.03-.01.04-.02,0,0,0,0,0,0,0,.03,0,.07,0,.1ZM69.34,38.48s0,0-.01,0c-.01,0-.03,0-.04,0,0-.01,0-.03,0-.04.02.01.04.03.06.03ZM61.61,36.3c-.06.04-.08.12-.06.18,0,0,0,.02-.01.03-.05-.06-.13-.09-.21-.04-.13.08-.08.23.01.29-.11-.02-.2.1-.19.2-.06-.03-.13-.03-.19.03-.15.16.09.4.24.24.05-.05.05-.1.04-.15.04.02.08.02.11,0,0,.03.02.06.04.08-.17,0-.23.22-.1.31,0,.04.01.08.05.12.07.07.16.05.23,0,0,0,0,.01,0,.02-.06.08-.04.2.06.25-.08.05-.09.13-.06.2-.02.03-.02.07-.02.11-.02,0-.03.02-.04.03-.01,0-.02-.02-.03-.03-.02-.01-.04-.01-.06-.02,0,0,.01,0,.02,0,.19-.12,0-.41-.18-.29-.02,0-.03.02-.04.03-.03,0-.05,0-.09,0-.19.06-.12.33.05.33.02,0,.04.01.06.01.01,0,.02,0,.03,0-.02.04-.03.08-.03.12,0,0,0,0-.01,0-.02-.08-.09-.15-.2-.13-.09.02-.13.1-.13.17-.04,0-.08.01-.11.04,0-.09-.04-.19-.16-.19-.1,0-.15.07-.16.15,0,0,0,0-.01.01-.02-.02-.04-.03-.07-.04-.03,0-.05,0-.07,0,.06-.12-.06-.31-.22-.24-.19.09-.07.37.12.32-.02.04-.02.08-.02.13-.06.01-.11.02-.17.04,0-.07-.03-.15-.12-.17,0,0-.01,0-.02,0,.06-.04.1-.11.07-.2-.05-.12-.17-.12-.25-.07,0-.05-.03-.09-.08-.12,0-.03,0-.06-.02-.1-.02-.03-.05-.05-.08-.06.08-.05.11-.16.06-.24.08.03.17,0,.21-.09,0-.02.01-.04.01-.06,0,.08.06.17.17.17.06,0,.1-.02.13-.06.02.02.03.03.05.04,0,0,0,.01,0,.02,0,.04,0,.07.02.09-.11.18.17.36.29.18,0,0,0-.01,0-.02.03,0,.06,0,.1-.01-.06.08-.05.22.08.26.2.07.31-.23.13-.31,0,0,.02-.01.03-.02.01.01.02.02.04.03.07.03.13.02.17-.02.03-.01.06-.03.08-.07.03-.04.03-.08.02-.12.11-.06.14-.26-.02-.31-.14-.05-.23.07-.22.19-.01,0-.03.02-.04.03,0,0-.02,0-.02.02.02-.11-.06-.24-.2-.21-.11.03-.14.13-.12.21,0,0,0,0-.01,0-.02-.01-.05-.02-.07-.03-.01,0-.02,0-.04-.01.03-.11-.05-.25-.2-.22-.04,0-.06.03-.08.05-.03-.03-.07-.05-.12-.05-.11,0-.16.08-.16.16,0-.06-.04-.11-.09-.14-.04-.06-.1-.1-.19-.07-.14.05-.13.22-.05.29,0,0,0,0,0,0-.21-.04-.28.26-.09.33-.08.04-.13.13-.07.23-.01,0-.03.01-.04.02-.06.06-.06.14-.02.2,0,0,0,0,0,0-.16-.05-.26.11-.21.23-.03-.02-.06-.03-.1-.03,0,0-.01,0-.02,0,.07-.04.12-.11.08-.21-.05-.12-.17-.12-.25-.07,0,0,0,0-.02,0-.16.04-.16.22-.06.3-.12.04-.15.22-.05.3-.03,0-.06.01-.09.02-.02-.08-.09-.14-.2-.12-.02,0-.04.01-.05.02.04-.04.05-.1.03-.16-.04-.11-.15-.12-.23-.09.08-.13-.08-.33-.24-.23,0,0,0,0-.01.01,0-.07-.04-.14-.13-.16-.02,0-.04,0-.05,0,.09-.09.05-.3-.12-.3-.11,0-.16.08-.17.17-.01-.02-.03-.03-.06-.04-.15-.07-.27.09-.23.22-.14.03-.2.27-.02.33.07.02.13,0,.17-.04.03.01.07,0,.11-.01,0,0,.01,0,.02-.01.03.07.09.12.17.12.02.08.09.15.2.13.08-.02.11-.07.12-.13.04.03.1.04.16.02-.02.04-.03.09,0,.14.05.12.17.12.26.07-.03.03-.04.08-.04.12,0,0-.02,0-.02,0-.02,0-.05,0-.08,0,0,0-.02,0-.03.01,0,0-.01,0-.02,0-.07-.04-.18-.03-.23.04-.03-.03-.06-.05-.1-.06,0-.03-.02-.07-.05-.1-.15-.13-.34.06-.27.2,0,.01,0,.02,0,.03,0,0,0,0,0,0-.12.02-.25.05-.37.07-.02-.03-.04-.05-.07-.07-.12-.06-.22.03-.24.14-.08.02-.16.03-.24.05,0-.01,0-.02,0-.03,0,0,.02-.02.03-.03.05-.07.03-.15-.02-.2,0,0,.01-.01.01-.02,0-.02,0-.03,0-.05,0,0,0,.02.01.03.12.19.41,0,.29-.18-.03-.05-.07-.07-.11-.07-.01-.04-.04-.08-.08-.1.02-.05.01-.11-.04-.16-.16-.15-.4.09-.24.25.01.01.03.02.04.03,0,.01,0,.03,0,.04-.07-.02-.16,0-.2.09-.03.07,0,.13.03.17-.03.04-.03.09-.02.13-.05.05-.06.12-.03.18-.09.02-.18.04-.27.06.02-.01.03-.03.04-.05.13,0,.23-.17.12-.29.08-.09.07-.26-.08-.29-.04,0-.07,0-.1.01,0-.02,0-.04-.01-.05.11,0,.17-.08.17-.17,0,0,0,0,.01,0,.19.05.27-.21.14-.31,0-.15-.21-.26-.32-.1-.06.09-.02.18.05.23,0,0,0,0,0,.01,0,0-.01,0-.02,0-.15-.03-.23.13-.19.24-.12,0-.22.12-.18.23,0,0,0,0,0,0-.02,0-.03.01-.05.02-.03-.02-.06-.04-.1-.04-.13,0-.18.12-.16.22,0,0,0,0,0,0-.02-.02-.04-.04-.07-.05-.08-.03-.14,0-.18.05,0-.03,0-.05,0-.08-.08-.21-.4-.08-.32.13.05.14.21.12.29.04,0,.04,0,.08.01.12,0,.01,0,.02,0,.04,0,.06.03.1.07.12-.03.06,0,.12.03.17-.07.02-.14.04-.22.06-.03,0-.05.02-.08.02-.01-.01-.02-.02-.04-.03,0,0,0,0-.01,0,0-.03-.02-.06-.05-.09-.06-.06-.14-.06-.19-.03-.04-.09-.16-.16-.26-.08,0,0,0,.01-.01.02-.01-.01-.02-.02-.04-.03-.16-.08-.29.11-.22.24-.07.07-.08.19,0,.25-.04.01-.09.03-.13.04-.09-.09-.21-.04-.26.05-.02.01-.05.03-.06.06,0,0,0,0,0,0-.06.02-.12.04-.18.06.02-.09-.04-.2-.16-.2-.17,0-.21.21-.11.3-.2.07-.39.15-.58.22.05-.06.05-.15,0-.22,0-.03-.02-.05-.04-.07,0-.02,0-.04,0-.06.02-.04.03-.08,0-.14-.03-.07-.08-.1-.14-.1-.03-.02-.08-.03-.13-.02-.01,0-.02.01-.04.02,0,0,0,0,0,0,.11-.08.07-.22-.02-.28,0,0,0,0,0,0,.01,0,.03,0,.04.01.07.05.18.05.24-.04.07-.11,0-.22-.1-.25.15-.16.29-.31.4-.43.07-.01.12-.07.13-.13.08-.08.14-.14.18-.18.02.04.05.07.09.09,0,.02,0,.03,0,.05-.09.1-.05.29.12.29.12,0,.17-.1.16-.19.02-.02.03-.04.04-.06.05-.11-.02-.19-.11-.22,0-.05-.01-.09-.04-.13.23-.13.53-.26.88-.37,0,0,0,0,0,0-.04.02-.06.05-.07.09-.03,0-.07,0-.11.03-.03.02-.05.05-.06.07-.03-.02-.06-.03-.1-.03-.08,0-.13.05-.15.1-.16-.09-.35.14-.19.28.04.04.09.05.13.04,0,.02.02.05.04.07,0,0,0,0,0,0-.08.09-.07.26.08.29.18.04.26-.19.15-.29.05-.05.08-.12.05-.18.02-.02.03-.04.04-.06.05.04.12.06.19.01.04-.02.06-.05.07-.08,0,0,0,0,.01,0,.05,0,.09-.02.11-.05,0,.01.01.02.02.03,0,.06.02.12.07.16-.01,0-.02.02-.03.03-.05-.07-.14-.1-.22-.05-.11.07-.09.2-.01.27,0,0,0,0,0,0-.03-.02-.07-.03-.12-.02-.22.05-.14.38.08.33.05-.01.09-.04.11-.08,0,0,.02.01.03.01.02.01.04.02.06.03.07.02.13-.01.16-.06.07.04.16.03.22-.06.03-.05.03-.1.02-.14.07-.07.08-.19,0-.26.04-.03.07-.07.08-.12.08-.03.11-.11.1-.18.03,0,.06,0,.09,0,0,.03,0,.05,0,.08-.05.12.07.3.22.23.07-.03.1-.1.1-.16,0,0,0,0,.01,0,.11.04.19-.03.21-.11.05.03.11.04.17,0,.08-.05.09-.14.06-.21.03-.06.04-.13,0-.18,0,0,.01,0,.02,0,0,.06.05.11.12.13.06.01.11,0,.14-.03.03.04.07.07.13.07.22,0,.22-.34,0-.34-.04,0-.08.02-.1.04-.02-.03-.05-.05-.1-.06,0,0,0,0,0,0-.02-.08-.1-.12-.18-.12.11-.03.22-.05.33-.08.01.09.09.18.2.15.12-.03.14-.13.12-.22.28-.06.56-.12.82-.18,0,0,0,0,.01,0-.08.08-.03.21.05.26-.03.14.13.25.25.19.04.06.11.1.18.09-.01.05,0,.11.04.15.09.09.21.04.26-.05.04.02.08.02.12.01.02.05.05.09.12.1.05.01.09,0,.12-.02-.03.02-.06.06-.07.11-.03.22.31.26.34.04,0,0,0,0,0,0,.05,0,.08-.02.11-.05,0,0,0,0,.01,0,.03.03.08.05.13.05.01.04.04.08.09.1.19.09.33-.19.16-.3.12-.06.14-.28-.03-.32,0,0-.01,0-.02,0,.05-.09.01-.21-.08-.25.02,0,.03-.01.05-.02.05-.04.07-.09.06-.14.03,0,.05,0,.08-.03.19-.12,0-.41-.18-.29-.02.01-.04.03-.05.05-.01-.04-.04-.07-.07-.1.23-.06.47-.13.71-.2,0,.03,0,.06.03.1-.16-.15-.4.09-.24.25.03.03.06.04.09.04-.01.07.02.15.11.18.21.07.32-.25.11-.32,0,0-.01,0-.02,0,0-.05,0-.09-.04-.14,0,0,.01.02.02.03.05.05.1.06.15.04.02,0,.03.02.06.02.02,0,.03,0,.05,0,.01,0,.03,0,.05,0,.08,0,.12-.04.15-.09.07-.06.1-.17.01-.25,0,0,0,0-.01,0,.1-.03.2-.06.31-.09.02,0,.04.02.06.02-.09.05-.13.18-.04.27,0,0,.01,0,.02.01-.02,0-.04.02-.06.03-.02.02-.03.03-.04.05-.04-.01-.09-.01-.14.02-.08.05-.09.13-.07.19-.03.03-.06.07-.06.13,0,.12.1.17.19.17.02.02.05.04.08.05.06.01.1,0,.14-.03.11.05.27,0,.25-.16,0-.09-.07-.14-.14-.15.04-.03.06-.07.06-.1.07.03.15,0,.2-.05.13.02.27-.12.18-.26-.07-.11-.21-.09-.28,0-.02,0-.03,0-.05,0,0-.04-.01-.09-.05-.13-.03-.03-.07-.05-.11-.05,0,0,.02-.01.02-.02.02,0,.04,0,.06,0,.05-.01.08-.04.1-.08.24-.08.48-.15.73-.23-.02.08.01.18.11.2ZM51.53,40.88c.01-.07-.01-.15-.11-.19-.19-.07-.3.21-.15.3-.2.09-.39.18-.59.27-.03-.02.04-.14.17-.31.04.08.12.13.22.09.16-.08.1-.29-.04-.32.13-.16.29-.34.45-.53.03.01.07.02.11,0,.11-.04.13-.15.09-.23.04-.05.08-.09.13-.14,0,0,0,0,.01,0,.01.04.04.07.07.09-.09.08-.09.25.04.3-.03.04-.05.09-.04.14-.16-.1-.36.12-.21.26.13.12.3,0,.29-.15.01,0,.03.02.05.02.04,0,.07,0,.1,0,.02.03.04.05.07.07.02,0,.03.01.05.01-.24.1-.48.2-.72.3ZM57.97,37.69s-.07-.02-.11-.02c0,0,0,0,0-.01,0,0,.01-.01.02-.02.06,0,.13-.02.16-.1,0-.02.01-.04.01-.07,0,0,0,0,.01.01,0,.04,0,.08.02.11-.05.01-.1.04-.12.09ZM58.82,37.18c-.02.08.03.17.1.21,0,0-.01,0-.02,0-.02,0-.04.02-.05.04,0-.02-.02-.03-.03-.04-.09-.09-.2-.04-.26.04,0,0,0,0,0,0-.03-.03-.07-.04-.1-.04,0,0,0-.01-.01-.02-.04-.04-.08-.05-.12-.05,0-.04-.02-.08-.06-.11.05-.04.08-.12.06-.18.13-.03.25-.06.36-.09-.05.1.02.24.13.25ZM57.99,37.35s-.02-.02-.04-.02c.02-.04.02-.1-.01-.15-.01-.02-.02-.02-.04-.04,0-.01.02-.02.02-.04.02,0,.04,0,.07-.01,0,.04.02.08.06.11-.04.04-.07.09-.07.15ZM54.66,38.12s-.04-.06-.09-.07c-.07-.03-.13,0-.17.04.02-.04.02-.09,0-.14.05-.02.1-.03.16-.05,0,.08.05.15.14.17,0,.02,0,.04,0,.05-.01,0-.02,0-.04,0ZM55.24,38.08c-.08-.02-.14.02-.17.08-.01,0-.03,0-.04,0,.02-.05.01-.09,0-.13.03-.01.05-.03.07-.06.04-.06.03-.12,0-.17.01-.02.02-.03.02-.05.02,0,.03,0,.05-.01.07.06.16.04.22,0,.02.03.05.04.09.05-.02,0-.04.01-.06.03-.1.08-.07.19,0,.26,0,.01-.01.03-.01.04,0,0-.01,0-.02-.01-.04-.01-.08-.01-.11,0-.01,0-.02-.01-.03-.02ZM55.67,37.61s0,0,0,0c.01,0,.02,0,.03,0-.01,0-.02,0-.03.01ZM57.64,37.21s-.02.1.01.15c.01.02.03.03.04.04-.04.01-.07.03-.09.07-.02-.02-.04-.04-.06-.05.01-.05,0-.11-.04-.15.05,0,.1-.02.14-.05ZM58.42,38s0,0,0,0c0,0,0,0,0,0,0,0,0,0,0,0ZM58.79,37.8s-.06-.04-.1-.05c.02-.02.03-.05.03-.08.04,0,.07-.03.1-.05.02.05.07.09.13.1-.02.03-.03.08-.03.12-.03,0-.06,0-.08.01-.01-.02-.03-.03-.05-.04ZM70.89,47c-.25.36-.64.47-.92.84-.18.24-.3.47-.33.77-.09.02-.19.03-.28.04-.38,0-.62-.27-.98-.4-.27-.1-.59-.1-.79-.18-.4-.16-2.03-3.32-2.42-3.88-.05-.21.3-1.45.49-1.55.49-.17.92.3,1.28.58,1.42,1.1,2.65,2.53,3.94,3.77ZM74.45,37.12s0,0,0,0c0,0,0,0,0,0,0,0,0,0,0,0,0,0,0,0,0,0ZM71.67,39.12s0,0,0,0c0,0,0,0,0,0,0,0,0,0,0,0ZM78.34,34.27s0,0,0,0c0,0,0,0,.01,0,0,0,0,0,0,0ZM83.64,21.45c-.27.65-.46,1.32-.61,2-.09.05-.15.18-.06.27-.29,1.44-.44,2.92-.87,4.35-.1.35-.22.69-.35,1.02-.02-.04-.05-.07-.11-.08-.22-.05-.29.28-.08.33.03,0,.06,0,.09,0-.06.14-.12.29-.18.43-.05.03-.07.1-.07.16,0,.02-.02.04-.03.06-.11.02-.19.15-.12.26-.05.11-.11.21-.16.32-.12-.17-.4,0-.28.19.04.06.09.08.14.07-.48.88-1.04,1.72-1.68,2.52-.02-.04-.06-.06-.1-.08.07-.04.12-.11.08-.21,0,0,0,0,0,0,.08-.06.12-.17.03-.26-.14-.14-.35.04-.28.19-.06.04-.1.11-.07.2.02.06.07.09.11.1,0,0,0,0-.01,0-.13.08-.08.25.03.3-.04.05-.08.1-.13.15-.13-.02-.22.11-.19.22-.09.1-.17.19-.26.29-.01,0-.02,0-.04,0,.02-.02.04-.04.06-.07.08-.2-.23-.34-.32-.13-.02.06-.02.1,0,.14-.19-.01-.25.29-.05.34.04,0,.06,0,.09,0-.47.5-.98.97-1.5,1.42,0,0-.02,0-.03-.01-.1-.02-.16.03-.19.1-.01,0-.02,0-.03.01-.02-.03-.05-.05-.1-.06-.04,0-.07,0-.1.01.03-.06.03-.12,0-.18.09.08.2.03.25-.04.16.14.39-.1.23-.25-.05-.05-.11-.05-.16-.04,0,0,0,0,0,0-.03-.07-.09-.1-.15-.1.01-.02.02-.05.02-.08,0-.16-.17-.2-.27-.14,0,0,0-.01.01-.02.02-.04.02-.08,0-.12,0-.06-.02-.13-.09-.17-.14-.07-.26.08-.24.2-.02.14.15.23.26.16-.01.02-.02.05-.02.07,0,.11.08.16.17.17-.02.03-.02.07-.02.11-.05.05-.07.14-.02.21-.02-.02-.04-.03-.07-.04-.03,0-.05,0-.08,0-.05,0-.09,0-.13.02-.01,0-.03-.01-.04-.01.02-.02.04-.04.06-.07.04-.1-.01-.18-.09-.22.02-.04.02-.1-.01-.15-.07-.11-.2-.09-.27-.01,0-.02.01-.04.01-.06,0-.16-.18-.2-.28-.13-.12-.09-.33.02-.26.2,0,.01.01.02.02.03-.13-.04-.27.11-.21.23-.06.04-.1.11-.07.2.02.06.07.09.11.1,0,0,0,0-.01,0-.19.12,0,.41.18.29.14-.09.07-.28-.05-.31.07-.04.12-.11.08-.21,0,0,0,0,0,0,.01,0,.02-.02.03-.04.02.03.04.06.07.07-.04.16.2.3.31.14,0,0,.02.02.02.03.05.05.11.05.16.03,0,.02-.01.04,0,.07.01.14.16.18.26.13.03.02.07.02.11.01,0,0,0,0,.01,0,.04,0,.07,0,.1,0-.04.08-.02.19.06.23,0,0,0,.01,0,.02-.34.27-.69.54-1.05.79.06-.14-.11-.32-.26-.2-.14.11-.02.31.12.3-.06.04-.11.08-.17.12-.07-.11-.2-.08-.27,0-.02,0-.03,0-.05,0,0-.03,0-.05-.02-.08.12,0,.25-.12.17-.26-.06-.1-.17-.09-.24-.04,0-.01-.01-.02-.02-.03.08-.06.13-.17.03-.26-.15-.14-.36.06-.26.21,0,0-.01,0-.02,0-.02-.04-.05-.08-.11-.09-.14-.03-.22.09-.2.2,0,0,0,0-.02,0-.01,0-.02,0-.04,0,.01-.02.02-.04.02-.07.11-.07.12-.28-.05-.31-.12-.02-.19.06-.2.16-.05.02-.08.06-.09.11-.06.04-.1.12-.07.2,0,0,0,0,0,0-.07.03-.11.08-.11.14-.1-.03-.22.03-.23.14-.11-.05-.26.01-.25.16,0,.06.03.1.07.12-.06.15.14.33.28.19.05-.05.06-.11.04-.16.05-.03.08-.08.09-.14.06-.02.1-.07.11-.13.02,0,.05.01.08,0,0,.01-.01.03-.01.05-.03.22.31.26.34.04.02-.13-.1-.2-.2-.19.02-.04.02-.09,0-.14,0,0,.01,0,.02,0,0,.07.04.14.13.16.14.03.21-.09.2-.2,0,0,0,0,.01,0,.02,0,.04,0,.05,0,0,.04.01.08.04.11-.07.12.02.24.13.26,0,0,0,0-.01,0-.02.02-.03.03-.04.05-.04-.01-.09-.01-.14.02-.08.05-.09.13-.07.19-.03.03-.06.07-.06.13,0,.03,0,.05.01.07-.12.07-.23.14-.35.21-.01-.02-.03-.03-.05-.05-.04-.06-.1-.1-.19-.07-.06.02-.09.06-.1.1-.11.02-.17.16-.11.26,0,0,0,.01-.01.02-.04.02-.07.04-.11.06-.06-.08-.2-.11-.27-.01-.07-.04-.17-.04-.23.05,0,0,0,0,0,0-.09.02-.14.12-.12.21-.06-.02-.13-.01-.18.03-.13-.05-.29.08-.22.23-.02,0-.03.02-.05.02,0-.03-.02-.05-.05-.08-.07-.06-.15-.05-.2,0,0-.05,0-.09-.03-.12.14-.05.16-.29-.02-.33-.07-.02-.13.01-.17.06-.03-.03-.07-.06-.13-.06-.05,0-.08.02-.11.04,0-.01,0-.03,0-.04,0,0,0-.02,0-.03.07.03.14.02.2-.06,0,0,.02.02.02.03.09.08.2.03.25-.05,0,0,.01,0,.02,0-.03.07,0,.16.06.2,0,0,0,.01,0,.02.12.19.41,0,.29-.18-.02-.03-.04-.04-.06-.06-.03-.05-.09-.09-.16-.08,0-.02.01-.04.01-.06.02.03.05.05.1.06.05.01.1,0,.13-.03-.01.05,0,.11.05.16.02.02.05.03.07.04.05.04.12.06.19.01.03-.02.04-.04.06-.06.15.04.3-.16.16-.29-.09-.09-.2-.04-.26.04,0,0,0,0,0,0-.07-.06-.15-.05-.21,0,.02-.09-.01-.19-.12-.21-.13-.03-.2.08-.2.18-.02-.02-.04-.04-.07-.06.02-.04.02-.1-.01-.15,0-.01-.02-.02-.03-.03.02-.01.03-.03.04-.05.02-.04.03-.07.02-.11.01.01.03.03.05.04.2.09.35-.22.15-.31-.14-.07-.25.07-.24.18-.07-.07-.2-.1-.27.02-.02.02-.02.05-.03.07-.06-.06-.16-.07-.23-.02-.02-.02-.05-.02-.07-.03-.04-.04-.1-.06-.17-.04-.14.05-.14.21-.05.29-.05,0-.09.04-.12.1-.02.05-.02.1,0,.13-.02.03-.03.06-.02.1,0,.08.05.12.11.14-.01.02-.02.05-.02.08,0,0,0,0,0,0-.04.01-.08.04-.11.1-.08.2.23.34.32.13.01-.03.01-.05.01-.08.02,0,.05-.02.07-.03,0,.04,0,.08,0,.11-.03.02-.06.06-.06.11-.02.13.1.2.2.18,0,0,0,0,0,.01-.04,0-.09.01-.13.05-.08.09-.05.2.03.25-.1.04-.21.09-.31.13,0,0-.01,0-.02,0-.09.04-.18.07-.27.1,0,0,0,0,0,0-.07-.11-.2-.09-.27-.01-.03,0-.05.02-.07.04-.08-.08-.23-.09-.29.04-.03,0-.06.01-.09.03-.01-.05-.05-.1-.12-.11-.04,0-.07,0-.1.01,0-.02,0-.04-.01-.05.17.01.23-.21.12-.3.02-.1-.03-.22-.16-.22-.02,0-.04,0-.06.01,0-.01,0-.03-.02-.04,0,0,0,0-.01-.01.02-.07,0-.14-.05-.19.03-.04.03-.09.01-.13.02,0,.04.01.05.02,0,.06.05.11.12.13.22.05.29-.28.08-.33,0,0,0,0,0,0-.02-.09-.11-.13-.2-.12.14-.1.03-.36-.16-.3,0-.02,0-.03-.01-.05-.02-.05-.06-.08-.1-.09.04-.02.08-.05.09-.1.03-.06.03-.14-.04-.2,0,0-.01,0-.02-.01,0,0,0,0,0,0-.03-.07-.08-.09-.13-.1.03-.03.05-.07.05-.11.06.07.17.09.25.01.06-.06.06-.13.03-.19.05-.06.06-.15-.01-.22-.02-.02-.05-.03-.07-.04.02-.13-.14-.27-.27-.17-.06.05-.07.12-.05.18-.03-.01-.06-.01-.09,0,.01-.05,0-.1-.02-.14.01-.02.02-.04.02-.06.06,0,.13-.02.16-.1.04-.1-.02-.19-.1-.22.04-.03.06-.07.07-.12.08.02.17-.04.19-.12.02,0,.03,0,.05,0,.21-.07.1-.4-.11-.33-.03.01-.06.03-.08.05-.11-.13-.36-.01-.29.18,0,.02.02.03.03.04-.05.01-.09.05-.12.09,0-.08-.06-.16-.16-.16-.04,0-.07.01-.09.03,0-.04-.02-.07-.04-.1.05-.09.03-.23-.1-.26-.17-.04-.25.16-.17.27-.09.13.07.34.24.24,0,0,0,0,0,0,0,.03.01.06.03.09-.01.01-.02.03-.03.05-.03-.04-.08-.07-.15-.05-.02-.04-.05-.07-.1-.09,0,0,0,0,0,0-.03-.03-.08-.06-.13-.05,0-.02-.01-.04-.02-.06-.06-.1-.17-.09-.25-.04-.05,0-.11.01-.15.05,0,0,0-.02-.02-.03-.13-.13-.31.02-.28.16,0,0-.01.02-.02.03-.02-.03-.05-.06-.11-.07-.17-.04-.25.17-.17.28-.03.04-.04.08-.04.12-.1.05-.16.19-.05.28,0,0,.02,0,.02.01-.05.17.2.31.31.14.06-.09.02-.19-.06-.23,0-.02.01-.04.01-.05.02,0,.04-.02.05-.03,0,0,0,0,0,0,0,0,0,0,.01,0,.05.09.16.14.25.06.03-.03.05-.06.06-.09.03,0,.06-.01.09-.04.08.1.23.06.28-.04.02-.02.04-.05.05-.08.01,0,.02.01.03.02.03.01.06.01.09,0,.03.07.1.12.19.1.06-.01.1-.05.11-.1.01,0,.03.02.04.02,0,0,0,0,0,0,0,.04.02.07.04.1-.04,0-.07.03-.1.05-.05-.06-.13-.09-.21-.04-.07.04-.09.11-.07.17-.03,0-.06,0-.09,0-.03.01-.06.03-.08.05-.1-.02-.21.04-.21.16,0,.17.21.21.3.11,0,0,.02,0,.03,0-.09.08-.09.26.06.3.06.01.1,0,.14-.03.03-.01.06-.03.08-.06.01-.02.02-.03.02-.05.12,0,.23-.13.15-.26-.09-.14-.27-.07-.31.05,0,0,0,0,0,0,.04-.04.05-.09.04-.15.04.01.08,0,.13-.02.01,0,.02-.02.03-.03.02.03.06.05.1.05,0,.05.04.09.09.11.06.03.12.02.16-.02,0,.01,0,.03,0,.04-.01,0-.03,0-.05.01-.14.06-.11.23-.02.3,0,.03,0,.07.02.1,0,.09.06.18.17.18,0,.02.02.03.03.05.01.07.06.12.12.13-.08.03-.13.11-.09.21.03.07.09.1.15.1-.04.03-.06.07-.07.12-.08-.14-.2-.26-.35-.33.04-.02.07-.06.07-.12.03-.2-.24-.25-.32-.11-.03-.04-.07-.07-.13-.07-.16,0-.21.19-.13.29-.03.01-.07.03-.1.05-.03,0-.06.02-.09.05-.01,0-.03.01-.04.02-.05,0-.09,0-.12.03,0-.03-.02-.05-.04-.08-.02-.01-.03-.03-.05-.03.03-.02.06-.04.07-.07.11.04.26-.02.24-.16,0-.09-.07-.14-.14-.15-.02-.13-.2-.21-.3-.09-.08.02-.13.09-.13.16-.01.02-.02.04-.03.07,0,.04,0,.07.02.09-.1.03-.17.14-.1.25.03.05.07.07.11.08,0,.03.02.07.05.1-.01.04-.01.08,0,.11-.01,0-.02.02-.04.03-.02,0-.05,0-.07,0-.04-.14-.25-.19-.32-.03-.05.12.04.21.14.23-.03.02-.05.04-.08.06-.03-.05-.09-.09-.17-.08.01-.04,0-.09-.01-.13.06-.05.07-.13.04-.19.09-.03.12-.11.11-.18.04-.05.04-.12.01-.18.07-.06.1-.17.02-.25-.09-.08-.19-.05-.25.02-.14.04-.15.2-.08.28,0,0,0,.02,0,.03-.02.02-.03.05-.03.08-.08.03-.14.12-.11.21,0,0,0,0,0,0,0-.09-.08-.18-.17-.18.07-.14-.11-.33-.26-.21-.08.07-.08.17-.03.23-.04,0-.07.02-.1.05-.03-.1-.14-.17-.25-.1-.07.05-.09.12-.07.18-.08-.03-.17.02-.2.1-.11-.1-.25-.02-.28.09-.03-.01-.05-.02-.08-.02,0,0,0-.02-.01-.02.01,0,.03,0,.04,0,.09-.04.11-.13.08-.2.04-.03.09-.05.13-.08.04.03.08.04.12.04,0,0,.02,0,.02,0,.15.03.23-.12.19-.23.11-.01.17-.14.13-.24.08-.12.12-.26.1-.4,0,0,0,0,0,0,.05.08.17.11.25.05.01.02.03.05.06.06-.01,0-.03.01-.04.02-.14.11-.02.32.13.3-.03.06-.03.14.04.2.17.14.39-.11.23-.26-.04-.03-.08-.04-.12-.04,0-.02,0-.04,0-.06.06.02.12,0,.15-.04.02,0,.04,0,.06,0,.05-.02.07-.04.09-.08,0,0,0,0,0,0,0,0,0,0,0,0,0,0,0,0,0,0,.07-.09.03-.19-.04-.24.14-.11,0-.37-.18-.28-.01,0-.02.01-.03.02-.02-.04-.05-.07-.11-.09-.17-.04-.25.15-.18.26,0,0,0,.01,0,.02,0,0-.01,0-.02.01-.02-.03-.05-.06-.08-.07.02-.01.04-.03.06-.06.05-.09.02-.17-.04-.22,0,0,0-.02-.02-.03,0,0-.02-.01-.03-.02.06-.04.09-.12.08-.19.04.03.1.05.17.02.06-.03.09-.08.09-.13.14.13.34-.06.26-.21.08-.11,0-.31-.17-.27-.13.03-.15.16-.1.25-.02.02-.03.05-.04.08-.04-.04-.11-.06-.18-.03-.04-.04-.1-.06-.16-.03-.02,0-.04.02-.06.03,0-.02,0-.05,0-.07.01,0,.03,0,.04,0,.04,0,.06-.03.08-.05.05,0,.1-.02.14-.07.11-.17-.13-.34-.26-.21-.01,0-.02,0-.04,0-.1.02-.14.11-.12.19-.02,0-.03,0-.05,0,.01-.08-.03-.17-.13-.19-.09-.02-.15.02-.18.08-.04.02-.06.06-.08.1-.02-.07-.09-.14-.17-.13.11-.06.15-.24,0-.31-.09-.04-.17,0-.21.07-.04,0-.07.03-.1.07-.09.13.04.27.16.26-.07.13.09.32.25.22.03-.02.05-.05.06-.08.01.04.04.07.09.1.07.03.13.02.18-.02,0,.09.08.17.17.17-.11.01-.21.12-.14.25-.09.04-.11.14-.08.22-.04-.02-.08-.04-.13-.05.04-.09.01-.21-.11-.24-.15-.03-.23.12-.19.23-.07.01-.15.03-.23.06,0,0-.01-.02-.02-.02,0,0,.02,0,.03-.02.15-.16-.09-.4-.24-.24-.02-.03-.06-.05-.09-.06.01,0,.03,0,.04,0,.19-.04.15-.3,0-.34.13-.01.23-.18.11-.29-.04-.04-.09-.05-.13-.04.02-.03.04-.07.03-.1.02,0,.04,0,.06-.02.05-.02.08-.07.09-.11.04.04.1.07.17.04.21-.07.1-.4-.11-.33-.06.02-.09.07-.11.12-.04-.05-.11-.07-.19-.04-.01-.05-.04-.09-.1-.11-.21-.07-.32.25-.11.32,0,0,0,0,0,0-.01.01-.02.03-.03.04-.1-.09-.22-.03-.27.07,0-.11-.11-.21-.24-.15-.19.09-.07.37.12.32-.05.09-.03.23.11.25.12.03.2-.07.2-.17.03.03.07.05.12.05.04,0,.07-.01.09-.03,0,.04.01.09.05.13.04.04.08.05.12.05-.02,0-.04,0-.07,0-.18.04-.15.28-.02.33-.04,0-.08.01-.11.05-.15.16.09.4.24.24,0,.01.02.02.03.03-.05.03-.09.09-.08.15-.06.03-.11.05-.17.08.02-.07,0-.15-.09-.19-.13-.06-.23.05-.24.16-.05.02-.08.05-.1.1,0-.05-.03-.11-.07-.14,0-.02,0-.03-.02-.05-.03-.05-.08-.07-.13-.07.07-.03.1-.1.09-.16,0-.02,0-.05-.01-.07,0,0,0-.02.01-.03.21,0,.21-.34,0-.34-.09,0-.15.06-.16.13-.11,0-.17.12-.15.22-.01.03-.02.06-.01.1,0,.01,0,.02,0,.03-.03,0-.07,0-.1.03-.09.07-.07.19,0,.25-.16.11-.03.39.16.3.05-.03.08-.07.09-.11.05.07.13.11.22.06.03-.02.05-.05.07-.07,0,.03,0,.07.02.1-.11.06-.22.12-.32.17-.03-.02-.07-.04-.1-.03,0-.01-.02-.03-.03-.04-.14-.14-.35.05-.27.2-.05,0-.09,0-.13.05-.02.02-.03.04-.04.06-.09.03-.17.06-.26.09,0,0,0-.01,0-.02.08-.02.13-.1.13-.18.17-.05.15-.33-.05-.33-.12,0-.17.1-.16.19-.1.03-.15.17-.09.26-.08.02-.13.11-.12.19-.03,0-.06.02-.09.03-.02,0-.03-.01-.05-.01,0,0,0,0,0-.01.02,0,.04,0,.06,0,.08-.03.11-.09.11-.16.03-.08.02-.17-.08-.22,0,0,0,0,0,0,.05-.03.08-.08.08-.13.03,0,.05.01.09,0,.22-.05.14-.38-.08-.33-.08.02-.12.08-.13.15-.02,0-.03,0-.05,0,.08-.08.09-.22-.04-.28-.01,0-.02,0-.03,0-.03-.04-.08-.07-.14-.06.01,0,.02-.01.04-.02.19-.12,0-.41-.18-.29-.03.02-.05.04-.06.07-.01-.06-.05-.1-.12-.12-.11-.03-.19.05-.2.15-.02-.03-.06-.06-.1-.07-.01-.04-.04-.08-.08-.11,0-.07-.05-.14-.12-.16.02-.02.04-.04.05-.07.02,0,.03,0,.05,0-.03.1.02.22.16.22.09,0,.14-.06.16-.12.02-.01.03-.03.03-.05.01,0,.03,0,.04-.02.13.04.29-.1.2-.25-.06-.1-.17-.09-.24-.04-.08-.02-.17,0-.2.08,0,0-.01,0-.02,0,0-.03-.01-.05-.03-.08.19-.07.38-.13.57-.2.02,0,.03,0,.05,0,.02.04.06.08.12.08-.02.07,0,.15.05.2-.14.05-.16.29.02.33.07.01.12,0,.15-.05.03.02.06.03.1.03.12,0,.17-.1.16-.19.11-.01.21-.13.13-.26-.09-.13-.26-.07-.3.04.02-.09-.04-.2-.14-.21.01-.03.01-.07,0-.11,0,0,0,0,0,0,.03.1.14.18.25.11.09-.06.09-.15.05-.22.1-.04.19-.07.29-.11,0,0,0,0,0,0,.03.01.06.01.08,0,0,0,0,0,0,0-.02.03-.03.07-.02.1-.07.05-.1.14-.07.21-.03.07,0,.16.06.2-.03.14.15.26.26.18,0,.06.05.11.12.13.22.05.29-.28.08-.33-.05-.01-.1,0-.13.02-.01-.04-.04-.07-.07-.09,0-.04,0-.07-.02-.11.01-.02.02-.04.02-.07.02-.01.04-.03.06-.06,0,0,0,0,0,0,.07-.09.06-.25-.09-.28-.02,0-.05,0-.07,0,.29-.12.59-.23.88-.36-.02.11.06.24.2.21.04,0,.07-.03.09-.06-.04.17.2.3.31.13.12-.18-.16-.36-.28-.19.02-.07-.01-.15-.07-.19.4-.17.8-.36,1.2-.55.04,0,.07-.02.1-.05.07-.03.13-.07.2-.1-.03.12.09.27.24.2.15-.07.1-.27-.02-.32.4-.21.8-.42,1.19-.65.02,0,.05,0,.07-.03.02-.01.03-.03.04-.04.11-.07.23-.14.34-.2.07,0,.13-.04.15-.1.57-.36,1.13-.74,1.66-1.15,0,.04.03.09.08.11-.01,0-.02,0-.04,0-.15.05-.13.23-.03.31-.04.02-.07.06-.08.1,0,0-.01,0-.02,0-.02-.03-.04-.05-.07-.07-.2-.09-.35.22-.15.31.02,0,.04.01.05.01,0,0,0,0,0,0-.13.01-.18.17-.13.26-.07.03-.11.11-.1.19-.06,0-.12,0-.16.07-.09.13.04.27.16.26-.07.13.09.32.25.22.16-.1.05-.34-.11-.32.02-.03.02-.07.01-.1.15.01.22-.16.16-.26.1-.04.14-.17.08-.26.01,0,.02,0,.03,0,.07-.02.1-.07.11-.12.13.03.28-.1.2-.25.03,0,.07,0,.11-.01.2-.09.06-.4-.14-.31,0,0-.02-.01-.03-.02.16-.01.21-.25.06-.32.05-.04.09-.07.13-.11,0,0,0,.02.01.03,0,.01.02.02.03.03,0,.05.03.09.06.12-.14.09-.06.35.14.31.15-.04.16-.22.07-.3.09-.06.09-.18.03-.25,0-.03,0-.06-.02-.08.07-.03.12-.11.1-.19.01,0,.02-.02.03-.03.12.03.21-.08.2-.18.14-.12.27-.25.4-.37-.01.05,0,.1.05.15.16.15.4-.09.24-.25-.04-.04-.1-.05-.14-.04,0,0,.02-.02.03-.03.04.03.1.04.16.01.05-.02.08-.06.09-.11.05.07.13.1.22.05.03-.02.05-.05.07-.07,0,.07.03.14.12.16,0,0,0,0,0,0,0,0,0,0,0,0,0,0,0,0,0,0,.02,0,.04,0,.06,0,.02.04.06.08.11.09,0,.05.04.1.08.12.02.02.04.04.08.06.21.07.32-.25.11-.32,0,0,0,0,0,0-.02-.02-.04-.03-.07-.04-.01-.06-.06-.13-.12-.15.09-.08.09-.26-.06-.3-.14-.03-.22.09-.2.19-.05.02-.08.05-.1.1,0-.1-.09-.2-.2-.18.11-.11.21-.23.31-.34.16.14.39-.1.23-.25,0,0,0,0,0,0,.19-.22.37-.45.55-.69.02,0,.04,0,.06,0,.1-.03.13-.13.1-.21.07-.1.15-.22.23-.33,0,.02.02.05.04.07.08.08.19.05.25-.02.13.02.27-.12.18-.26-.07-.11-.21-.09-.27-.01-.02,0-.04,0-.06,0,.19-.3.38-.63.56-.98,0,.02.02.03.03.04.16.15.4-.09.24-.25-.05-.04-.1-.05-.14-.04.03-.06.06-.12.09-.18.13-.01.18-.17.12-.26,0,0,0,0,0,0,.03.03.08.04.14.03.19-.04.15-.31,0-.34.17-.41.32-.83.42-1.22.03.09.12.17.23.12.2-.09.06-.4-.14-.31-.02,0-.04.02-.05.04.06-.27.1-.53.1-.76,0-.41.01-.82.01-1.23.04-.06.04-.14,0-.2,0-.09,0-.18,0-.26-.15-.19-.27-.41-.34-.64-.09-.27-.16-.55-.24-.83.02.02.05.03.09.03.22,0,.22-.34,0-.34-.08,0-.13.04-.15.1-.01-.04-.02-.08-.03-.13-.02-.08-.05-.16-.07-.24,0-.02-.02-.03-.03-.05-.08-.16-.16-.32-.23-.48-.04,0-.09.01-.13.02-1.23-1.46-2.93-2.45-4.8-2.83.2-.35.39-.63.53-.71.54-.31,1.99-.11,2.62.02.47.1,1.52.74,1.46-.3-.05-.74-1.75-1.02-2.31-1.2.56-.53,1.83-.29,2.55-.11.32.08,1.22.53,1.39.52.2,0,.51-.42.82-.48.49-.09,1.86.31,2.32.56,1.26.68,1.35,2.14,3.15,1.99.62-.05,1.31-.38,1.96-.43,1.01-.07,2.2.2,2.77,1.1-1.3.96-2.22,2.12-2.84,3.62ZM75.61,35.49s.03.03.04.04c-.04.01-.07.03-.09.07-.02-.02-.04-.04-.06-.05.01-.05,0-.11-.04-.15.05,0,.1-.02.14-.05-.02.04-.02.1.01.15ZM75.2,35.39s0,0,0,0c0,0,0,0,0,0,0,0,0,0,0,0ZM71.52,38.06s.03.03.04.04c-.04.01-.07.03-.09.07-.02-.02-.04-.04-.06-.05.01-.05,0-.11-.04-.15.05,0,.1-.02.14-.05-.02.04-.02.1.01.15ZM71.57,37.84s-.03.02-.04.03c0-.02,0-.03.01-.05,0,0,.02.02.03.02ZM68.87,36.36s-.01-.06-.03-.09c0,0,.01-.02.02-.03,0,.04.02.08.06.11.01.01.03.02.04.02-.01,0-.02.02-.03.03-.01-.02-.03-.04-.06-.05ZM69.25,37s.01,0,.02,0c0,0,0,.01,0,.02,0,0,0,0,0,0,0,0,0-.01,0-.02ZM64.41,35.81s0,0,0,0c0,0,0,0,0,0,0,0,0,0,0,0ZM62.98,36.01s.02-.03.03-.05c0,.01,0,.03,0,.04,0,0-.02,0-.03,0ZM81.39,14.24c.66-.46,1.53.48.91,1.04-.73.67-1.57-.58-.91-1.04ZM85,15.33c-.72-.23-1-1.17-1.48-1.71-.81-.92-2.02-1.33-3.15-1.73l-4.33-.98c.6-.6,2.96-.84,4.52-1.01,1.9-.2,4.24.42,5.63,1.8.84.83,1.41,1.94,1.63,3.1-.86.48-1.85.85-2.83.53ZM88.66,16.9c-.37.04.16-.63.22-.67.23-.14.97.16,1.24.27.27.1.68.29.89.49l-2.35-.09Z"/>
    <path class="cls-1" d="M58.04,37.98c-.22,0-.22.34,0,.34.22,0,.22-.34,0-.34Z"/>
    <path class="cls-1" d="M65.28,36.55c.22.05.29-.28.08-.33-.22-.05-.29.28-.08.33Z"/>
    <path class="cls-1" d="M59.5,40.32c-.2.09-.06.4.14.31.2-.09.06-.4-.14-.31Z"/>
    <path class="cls-1" d="M52.95,39.42s-.08-.02-.12,0c.01-.04,0-.09-.02-.14,0-.01-.02-.02-.03-.03.03,0,.07-.03.09-.07.12-.19-.17-.37-.29-.18-.05.08-.02.17.04.22-.04.01-.07.03-.09.06-.08.04-.1.13-.08.2-.09.07-.11.22.01.29-.02.05,0,.11.04.16.07.07.16.06.22,0,.04,0,.09,0,.13-.05.04-.04.05-.09.05-.13.14-.03.2-.24.04-.32ZM52.71,39.56s0,0,0,.01c0,0,0,0,0,0,0,0,0,0,0,0Z"/>
    <path class="cls-1" d="M70.3,33.2s.07-.07.08-.11c.02.04.05.07.1.09.21.07.32-.25.11-.32-.01,0-.02,0-.03,0,0-.02,0-.04,0-.06.02.01.05.03.09.03.08,0,.12-.04.15-.09.01.02.03.03.05.04.01.06.05.11.12.13.18.04.27-.19.16-.29.02,0,.04.01.07.01.22,0,.22-.34,0-.34-.03,0-.05,0-.07.01,0-.02,0-.04,0-.06.03-.03.04-.07.03-.11.07.1.24.13.3-.02.08-.2-.23-.34-.32-.13-.01.02-.01.05-.01.07-.05-.08-.15-.13-.25-.05-.03.03-.05.06-.06.09-.05-.04-.12-.06-.19-.01-.19.12,0,.41.18.29,0,0,0,0,0,0,.05.07.13.11.22.07,0,.03,0,.06,0,.08-.07-.07-.19-.08-.26.02,0,0,0,0,0,0-.03-.04-.07-.06-.13-.06-.1,0-.16.08-.16.16-.02-.02-.04-.03-.07-.04-.17-.04-.25.15-.18.26,0,0,0,.01,0,.02-.03,0-.07,0-.11.03-.19.12,0,.41.18.29ZM71.08,32.59s0,0,0,0c0,0,0,0,0,0,0,0,0,0,0,0Z"/>
    <path class="cls-1" d="M66.45,34.85c.03.09.14.16.25.09.04-.03.07-.07.07-.11.06.04.13.06.2,0,.02-.02.03-.03.04-.05.03.02.07.03.11.02.22-.05.14-.38-.08-.33-.06.01-.09.05-.11.09-.05-.03-.12-.04-.18.01-.03.03-.05.06-.06.09-.03-.02-.06-.04-.1-.04.05-.12-.07-.3-.23-.23-.11.05-.12.17-.06.25-.11-.01-.25.09-.19.23.07.17.3.11.33-.03ZM66.46,34.73s0,.02-.01.03c0-.01,0-.02-.01-.03,0,0,.02,0,.03,0Z"/>
    <path class="cls-1" d="M69.41,34.32c-.08-.21-.4-.08-.32.13.02.04.04.06.07.08-.07.05-.12.14-.06.23.12.19.41,0,.29-.18-.02-.02-.04-.04-.06-.05.06-.04.11-.11.07-.2Z"/>
    <path class="cls-1" d="M77.11,33.92s0-.1-.05-.15c-.12-.11-.28,0-.29.12-.01-.03-.03-.05-.06-.07-.01-.04-.04-.07-.08-.09-.19-.09-.34.2-.16.3.04.08.14.13.23.07-.06.06-.07.17.01.24.05.05.11.05.17.03,0,0,0,0,0,0-.11.03-.19.19-.08.29.16.14.36-.08.25-.23.09-.03.15-.12.13-.22.07-.05.1-.14.05-.23-.03-.05-.08-.07-.12-.07ZM76.75,34.06s.03-.06.03-.1c0,.02.02.04.04.05.01,0,.02.01.03.02-.04,0-.07,0-.1.02Z"/>
    <path class="cls-1" d="M73.32,34c.04-.1-.02-.19-.1-.22.08-.06.11-.18.01-.26-.17-.14-.39.11-.23.26.01.01.03.02.04.02-.02.02-.04.04-.05.06-.08.2.23.34.32.13Z"/>
    <path class="cls-1" d="M75.98,33.86s-.03,0-.05.02c-.19.12,0,.41.18.29.04-.02.06-.06.07-.09.14-.04.17-.27,0-.33.1-.04.17-.18.07-.28,0,0,0,0-.01,0-.05-.12-.25-.17-.32,0-.03.08,0,.15.05.19,0,.03.02.05.04.07.02.02.04.03.06.04-.05.02-.08.06-.1.1Z"/>
    <path class="cls-1" d="M65.89,35.28s.02-.02.02-.02c.06.04.14.05.21-.02.06-.06.06-.13.03-.18.02-.04.02-.1-.01-.15-.07-.11-.21-.09-.27-.01-.03,0-.07,0-.1.01,0,0-.02-.02-.03-.02,0,0,0,0,0,0,0-.04-.01-.08-.05-.11,0,0-.02-.01-.03-.02,0-.07-.04-.14-.12-.16-.19-.05-.27.22-.13.31,0,.04.01.08.05.12.02.02.03.03.05.03,0,.06.03.11.09.14.02,0,.04.01.05.01,0,0,.01.01.02.02,0,0,0,.01.01.02,0,0,.01.01.02.02.01,0,.02.02.03.02-.18.12,0,.4.19.29.13-.08.08-.24-.02-.3Z"/>
    <path class="cls-1" d="M76.07,30.62c.1.01.17-.06.18-.14.13.02.28-.12.18-.26-.09-.14-.29-.07-.31.06-.11-.02-.18.05-.2.14-.2-.02-.27.29-.06.33.11.03.19-.05.2-.14Z"/>
    <path class="cls-1" d="M69.21,35.27s0,0,0,0c.22-.05.14-.39-.08-.33-.06.01-.09.05-.11.09-.02-.02-.05-.04-.08-.05-.11-.03-.19.05-.2.15,0,0-.01,0-.02,0,.04-.08.03-.18-.07-.23-.1-.05-.18,0-.22.08-.02-.03-.04-.05-.08-.06-.05-.02-.1,0-.13.01-.04-.03-.09-.04-.13-.03,0-.03-.02-.06-.05-.09-.07-.07-.15-.06-.21-.02,0-.04-.02-.09-.06-.11,0,0,0-.01-.01-.02.02-.02.04-.04.05-.07.01,0,.02-.02.03-.03-.01.12.09.25.24.18.12-.06.12-.2.05-.27,0,0,0,0,.01,0,.04-.03.05-.06.06-.1,0,.01.01.02.02.03.05.05.12.06.17.04.01.05.05.1.1.13-.03.1.04.23.16.22.04.08.14.14.24.07.13-.08.08-.25-.03-.3.07-.08.07-.21-.05-.27-.05-.03-.1-.02-.14,0-.04-.04-.1-.06-.16-.04,0-.03-.02-.07-.05-.09-.04-.03-.08-.05-.11-.05,0-.02,0-.03-.01-.05,0-.01.01-.03.02-.04.09,0,.14-.07.15-.14.12,0,.23-.13.15-.26-.09-.14-.28-.07-.31.06-.05,0-.09.02-.12.05,0,0,0,0-.01,0-.03,0-.05,0-.07,0,.02-.06.02-.12-.04-.18-.13-.13-.32.02-.29.17,0,0,0,0,0,0-.04-.03-.09-.04-.14-.02-.21.07-.1.4.11.33,0,0,0,0,.01,0,.08.04.18.04.23-.05,0,0,0,0,0,0,0,.03,0,.05,0,.08-.02.03-.02.07-.01.11-.03,0-.07,0-.1.03-.05.04-.07.08-.06.13-.01-.02-.03-.03-.06-.04-.03-.02-.06-.02-.09-.02,0-.06-.03-.12-.11-.15-.17-.06-.27.14-.2.25,0,.06.05.1.1.13,0,.03,0,.06.02.09-.07.05-.08.14-.05.21-.1-.03-.22.02-.22.16,0,.22.34.22.34,0,.02.01.05.02.08.02.03,0,.06,0,.08-.02,0,.01,0,.03.01.04-.05,0-.09,0-.13.05-.15.16.09.4.24.24.06-.06.06-.14.03-.19.02,0,.04,0,.06,0,.01.07.08.13.15.14.03.06.09.11.16.11-.06.17.19.32.3.15.08-.13-.03-.25-.15-.26,0-.02.01-.04.01-.05,0,0,0,0,0-.01.02.02.04.04.06.05.05.02.09.02.13,0-.02.04-.02.08,0,.12.04.1.13.12.21.09.01.06.05.11.13.12.05,0,.08,0,.11-.02.08,0,.16-.06.16-.16,0-.05-.02-.08-.04-.11ZM67.93,34.45s-.01.01-.02.02c0-.01,0-.03,0-.04,0,0,0,.02.02.02Z"/>
    <path class="cls-1" d="M71.35,33.91c.22.05.29-.29.07-.34-.22-.05-.29.29-.07.34Z"/>
    <path class="cls-1" d="M67.16,34.44c.22-.05.14-.38-.08-.33-.22.05-.14.39.08.33Z"/>
    <path class="cls-1" d="M75.36,32.96c-.16-.15-.4.09-.24.25.16.15.4-.09.24-.25Z"/>
    <path class="cls-1" d="M70.58,37.75c-.13,0-.24.18-.12.29.07.07.16.06.22,0,.04,0,.09,0,.13-.05.15-.15-.08-.38-.23-.25Z"/>
    <path class="cls-1" d="M64.74,36.36c-.16-.15-.4.09-.24.25.16.15.4-.09.24-.25Z"/>
    <path class="cls-1" d="M75.23,30.56c.16.15.4-.09.24-.25-.16-.15-.4.09-.24.25Z"/>
    <path class="cls-1" d="M72.65,31.3c.19.01.25-.29.05-.34-.04,0-.07,0-.1,0-.11.01-.21.13-.14.26.05.07.12.09.19.07Z"/>
    <path class="cls-1" d="M74.48,32.58c-.04-.06-.09-.08-.14-.08-.03-.03-.06-.05-.11-.05-.1,0-.15.07-.16.15-.07.01-.13.07-.13.16,0,.12.1.17.2.16.03,0,.06,0,.08,0,.08.14.34.09.32-.1,0-.04-.02-.07-.04-.09.02-.05.02-.1-.01-.15Z"/>
    <path class="cls-1" d="M78.05,33.04c-.12-.18-.4,0-.29.19.02.04.05.05.08.07.02.03.05.06.1.07.21.04.28-.26.1-.32Z"/>
    <path class="cls-1" d="M70.05,38.72c-.21-.07-.32.25-.11.32.21.07.32-.25.11-.32Z"/>
    <path class="cls-1" d="M71.35,32.39c0,.22.34.22.34,0,.02.01.05.02.08.02.18,0,.21-.22.1-.31,0-.02-.02-.04-.03-.06.15,0,.24-.25.07-.33-.03-.02-.06-.02-.09-.02,0-.06-.03-.12-.11-.15-.17-.06-.27.14-.2.25.01.08.09.16.18.15,0,.01.01.02.02.03-.01,0-.02,0-.03,0-.02,0-.03.01-.04.02-.1,0-.2.1-.16.22-.07.02-.12.07-.12.15Z"/>
    <path class="cls-1" d="M77.86,26.08c-.19.12,0,.41.18.29.19-.12,0-.41-.18-.29Z"/>
    <path class="cls-1" d="M73.66,28.75c.19-.12,0-.41-.18-.29-.19.12,0,.41.18.29Z"/>
    <path class="cls-1" d="M80.2,26.48c-.19.12,0,.41.18.29.19-.12,0-.41-.18-.29Z"/>
    <path class="cls-1" d="M81.17,29.31c-.19.12,0,.41.18.29.19-.12,0-.41-.18-.29Z"/>
    <path class="cls-1" d="M80.03,31.31c-.19.12,0,.41.18.29.19-.12,0-.41-.18-.29Z"/>
    <path class="cls-1" d="M74.57,35.03c.08.21.4.08.32-.13-.08-.21-.4-.08-.32.13Z"/>
    <path class="cls-1" d="M73.06,32.72c.13-.05.16-.28-.02-.33-.11-.03-.19.05-.2.15-.08.03-.15.11-.11.22.07.17.3.11.33-.04Z"/>
    <path class="cls-1" d="M74.19,27.93s0-.02-.02-.03c.03,0,.06,0,.09-.01.2-.09.06-.4-.14-.31-.11.05-.12.17-.06.25-.11-.01-.25.09-.19.23.08.21.4.08.32-.13Z"/>
    <path class="cls-1" d="M76.9,27.7c-.07.05-.12.14-.06.23.12.19.41,0,.29-.18-.02-.02-.04-.04-.06-.05.06-.04.11-.11.07-.2-.08-.21-.4-.08-.32.13.02.04.04.06.07.08Z"/>
    <path class="cls-1" d="M78.58,29.12c.08.2.39.08.32-.12.1-.01.19-.13.15-.23.02,0,.04-.01.06-.02.19-.12,0-.41-.18-.29-.08.05-.09.14-.06.21-.1.02-.18.13-.14.23-.1.01-.2.11-.15.23Z"/>
    <path class="cls-1" d="M80.34,30.46c.08.21.4.08.32-.13-.08-.21-.4-.08-.32.13Z"/>
    <path class="cls-1" d="M76.39,32.7c.08.21.4.08.32-.13-.08-.21-.4-.08-.32.13Z"/>
    <path class="cls-1" d="M81.72,27.14c-.08-.21-.4-.08-.32.13.08.21.4.08.32-.13Z"/>
    <path class="cls-1" d="M75.51,32.74c0-.05-.02-.09-.05-.12-.02-.04-.06-.08-.11-.09-.07-.02-.13.01-.16.06-.05-.02-.11,0-.16.04-.15.15.07.38.23.25.1.05.25,0,.25-.14Z"/>
    <path class="cls-1" d="M69.84,37.04s-.04.11,0,.18c.12.19.41,0,.29-.18-.04-.06-.1-.08-.15-.07.01-.02.02-.05.02-.08,0-.1-.07-.15-.15-.16.04-.04.06-.1.04-.17-.04-.1-.14-.12-.22-.09-.05-.07-.15-.11-.24-.04-.13.1-.04.28.08.3.01.03.04.06.08.08.03.01.06.02.08.02,0,.02-.01.04-.01.06,0,.12.1.17.19.16Z"/>
    <path class="cls-1" d="M72.29,34.24s-.06.03-.08.05c-.1-.02-.21.04-.21.16,0,.03,0,.05.02.08-.1.03-.18.14-.1.25,0,0,0,0,0,0-.07.04-.1.11-.08.18-.04.03-.07.08-.08.14-.01.02-.02.04-.03.07-.03.2.24.25.32.11.04.02.09.02.14-.02.09-.06.09-.15.05-.22.03,0,.07,0,.11-.01.04-.02.07-.05.08-.09.06.04.15.05.21-.02.08-.08.05-.19-.02-.25,0-.08-.09-.15-.17-.15.11-.11,0-.34-.18-.28ZM72.28,34.68s0,0,0,0c0,0,0,0,0,0,0,0,0,0,0,0Z"/>
    <path class="cls-1" d="M64.25,35.21c-.12.19.17.37.29.18.12-.19-.17-.37-.29-.18Z"/>
    <path class="cls-1" d="M76.16,24.98c.06,0,.1-.02.13-.06.04.04.09.07.16.05.22-.05.14-.39-.08-.33-.04,0-.06.03-.08.05-.03-.03-.07-.05-.12-.05-.22,0-.22.34,0,.34Z"/>
    <path class="cls-1" d="M79.8,29.77s.06-.05.07-.08c0,0,0,0,.01,0,.22,0,.22-.34,0-.34-.08,0-.13.05-.16.11-.03,0-.07,0-.11.03-.19.12,0,.41.18.29Z"/>
    <path class="cls-1" d="M79.52,25.58c.22,0,.22-.34,0-.34-.22,0-.22.34,0,.34Z"/>
    <path class="cls-1" d="M76.43,22.44c-.22,0-.22.34,0,.34.22,0,.22-.34,0-.34Z"/>
    <path class="cls-1" d="M78.38,25.65c-.22,0-.22.34,0,.34.22,0,.22-.34,0-.34Z"/>
    <path class="cls-1" d="M80.54,27.21c-.22,0-.22.34,0,.34.22,0,.22-.34,0-.34Z"/>
    <path class="cls-1" d="M79.22,23.63c.22,0,.22-.34,0-.34-.22,0-.22.34,0,.34Z"/>
    <path class="cls-1" d="M78.32,30.23c.22,0,.22-.34,0-.34-.22,0-.22.34,0,.34Z"/>
    <path class="cls-1" d="M78.91,27.42c.17.14.39-.11.23-.26-.17-.14-.39.11-.23.26Z"/>
    <path class="cls-1" d="M74.65,30.86c-.16-.14-.36.08-.25.23-.06.05-.1.13-.04.22.12.19.41,0,.29-.18,0,0,0,0,0,0,.07-.06.1-.18,0-.26Z"/>
    <path class="cls-1" d="M77.03,29.08s0-.01,0-.02c-.08-.21-.4-.08-.32.13,0,.02.02.03.03.04-.05.01-.09.05-.12.09,0-.08-.06-.16-.16-.16-.04,0-.07.01-.09.03,0-.04-.02-.07-.04-.1.05-.09.03-.23-.1-.26-.17-.04-.25.16-.17.27-.09.13.07.34.24.24,0,0,0,0,0,0,0,.03.01.06.03.09-.06.08-.06.2.04.26,0,.04.01.07.04.1-.04,0-.07.03-.09.05-.05-.06-.13-.09-.21-.04-.19.12,0,.41.18.29.01,0,.02-.02.03-.03.03.03.07.06.13.06.03,0,.06,0,.08-.02.04.05.1.08.18.05.12-.04.13-.17.08-.25.05-.08.03-.2-.08-.25,0-.05-.03-.1-.09-.13,0-.03-.01-.06-.03-.08,0,0,.01-.02.02-.03,0,.04.02.08.06.11.12.1.26,0,.28-.12.15.03.29-.17.15-.3-.02-.01-.03-.02-.05-.03Z"/>
    <path class="cls-1" d="M79.33,29.63c-.17-.14-.39.11-.23.26.17.14.39-.11.23-.26Z"/>
    <path class="cls-1" d="M81.27,28.54c-.02-.06-.07-.09-.12-.1.12-.03.19-.19.08-.3-.17-.14-.39.11-.23.26.03.02.05.03.08.04-.09.02-.17.11-.13.23.08.21.4.08.32-.13Z"/>
    <path class="cls-1" d="M80.97,26.69c-.17-.14-.39.11-.23.26.17.14.39-.11.23-.26Z"/>
    <path class="cls-1" d="M78.45,23.75c-.22-.05-.29.28-.08.33.22.05.29-.28.08-.33Z"/>
    <path class="cls-1" d="M80.71,25.9c.22.05.29-.28.08-.33-.22-.05-.29.28-.08.33Z"/>
    <path class="cls-1" d="M78.7,26.07c.22.05.29-.28.08-.33-.22-.05-.29.28-.08.33Z"/>
    <path class="cls-1" d="M78.31,28.74c-.22-.05-.29.28-.08.33.22.05.29-.28.08-.33Z"/>
    <path class="cls-1" d="M81.48,23.83c.22.05.29-.28.08-.33-.22-.05-.29.28-.08.33Z"/>
    <path class="cls-1" d="M79.9,30.35s.04.02.06.03c.22.05.29-.28.08-.33,0,0-.02,0-.03,0-.08-.04-.18-.02-.23.08-.05.11.03.2.12.22Z"/>
    <path class="cls-1" d="M74.42,30.44c.17.06.27-.14.2-.26,0-.07-.04-.13-.13-.15-.17-.04-.25.15-.18.26,0,.06.03.12.11.15Z"/>
    <path class="cls-1" d="M80.21,21.5c.22.05.29-.28.08-.33-.22-.05-.29.28-.08.33Z"/>
    <path class="cls-1" d="M78.36,22.2c-.01.09.04.2.16.2.19,0,.22-.25.08-.32.01-.08-.02-.17-.12-.2-.2-.05-.28.23-.12.32Z"/>
    <path class="cls-1" d="M76.65,24.31c-.22-.05-.29.28-.08.33.22.05.29-.28.08-.33Z"/>
    <path class="cls-1" d="M75.45,23.12c.22.05.29-.28.08-.33-.22-.05-.29.28-.08.33Z"/>
    <path class="cls-1" d="M80.22,27.71s-.08,0-.11.02c.02-.08-.02-.17-.12-.2-.12-.03-.2.07-.2.17-.11.02-.2.14-.12.26.03.05.07.07.11.08,0,.03.02.07.05.1.11.11.26.02.29-.1.01,0,.02.01.03.02.22.05.29-.28.08-.33ZM80.02,27.85s0,0,0,0c0,0,0,0,0,0,0,0,0,0,0,0Z"/>
    <path class="cls-1" d="M78.33,20.96c.22.05.29-.28.08-.33-.22-.05-.29.28-.08.33Z"/>
    <path class="cls-1" d="M81.96,22.59c.22.05.29-.28.08-.33-.22-.05-.29.28-.08.33Z"/>
    <path class="cls-1" d="M80.11,23.51c.22.05.29-.28.08-.33-.22-.05-.29.28-.08.33Z"/>
    <path class="cls-1" d="M71.88,31.45s0,0,.01,0c.02.01.05.02.07.02-.07.09-.06.24.08.28.16.04.25-.14.18-.26,0,0,0,0,0,0,.22.05.29-.29.07-.34-.03,0-.05,0-.07,0,.02-.06.02-.12-.04-.18,0,0-.01,0-.02-.02.19.06.31-.23.12-.32-.19-.09-.33.18-.17.29-.12-.03-.24.09-.21.21,0,0,0,0,0,0-.04-.03-.09-.04-.14-.02-.21.07-.1.4.11.33ZM72.14,31.41s0,0,0,0c0,0-.02,0-.02,0,0,0,.01-.01.02-.02,0,0,.01.02.02.02Z"/>
    <path class="cls-1" d="M76.82,30.76c.16-.04.16-.24.05-.31,0-.11-.1-.24-.24-.18-.14.06-.11.23-.02.3,0,.11.07.22.2.19Z"/>
    <path class="cls-1" d="M75.69,27.6c-.2.09-.06.4.14.31.2-.09.06-.4-.14-.31Z"/>
    <path class="cls-1" d="M75.33,33.97c.2-.09.06-.4-.14-.31-.2.09-.06.4.14.31Z"/>
    <path class="cls-1" d="M73.06,31.27c-.2.09-.06.4.14.31.2-.09.06-.4-.14-.31Z"/>
    <path class="cls-1" d="M78.26,33.34c-.03.22.31.26.34.04.03-.22-.31-.26-.34-.04Z"/>
    <path class="cls-1" d="M74.87,32.56c.03-.22-.31-.26-.34-.04-.03.22.31.26.34.04Z"/>
    <path class="cls-1" d="M76.22,31.18c.07,0,.12-.04.15-.09.08.1.28.09.31-.08.03-.2-.24-.25-.32-.11-.03-.04-.07-.07-.13-.07-.22,0-.22.34,0,.34Z"/>
    <path class="cls-1" d="M71.22,33.45c.19.04.27-.22.14-.31.08-.06.11-.17.02-.26-.16-.15-.4.09-.24.25,0,0,.01,0,.02.01-.1.08-.1.27.06.31Z"/>
    <path class="cls-1" d="M77.54,27.17c-.22-.05-.29.29-.07.34.22.05.29-.29.07-.34Z"/>
    <path class="cls-1" d="M79.7,28.11c-.22-.05-.29.29-.07.34.22.05.29-.29.07-.34Z"/>
    <path class="cls-1" d="M79.36,30.29c.22.05.29-.29.07-.34-.22-.05-.29.29-.07.34Z"/>
    <path class="cls-1" d="M73.77,32.41c-.22-.05-.29.29-.07.34.22.05.29-.29.07-.34Z"/>
    <path class="cls-1" d="M77.92,31.86c.2.09.35-.22.15-.31-.03-.01-.05-.02-.08-.02.08-.03.13-.11.09-.21-.05-.12-.17-.12-.26-.07-.01-.01-.03-.03-.04-.04.12-.09.06-.26-.05-.3.02-.02.03-.04.05-.06.03-.07.01-.12-.02-.16,0-.04-.01-.09-.06-.13-.16-.14-.36.08-.25.23,0,.08.06.14.13.16-.11.08-.07.22.02.28-.1.08-.09.27.07.31.06.01.1,0,.14-.03.03.04.08.05.13.05-.11.06-.15.24,0,.31Z"/>
    <path class="cls-1" d="M79.16,26.74c-.22-.05-.29.29-.07.34.22.05.29-.29.07-.34Z"/>
    <path class="cls-1" d="M76.41,33.14c.11,0,.21-.1.16-.23-.05-.14-.21-.13-.29-.04-.09,0-.15.07-.16.16-.04.02-.06.06-.08.11-.02-.04-.06-.06-.11-.07-.22-.05-.29.29-.07.34.1.02.17-.04.19-.12.02.03.05.05.09.07.12.04.21-.05.22-.15.02-.01.03-.03.04-.04Z"/>
    <path class="cls-1" d="M75.53,29.53s0-.02,0-.04c.02,0,.04.01.06.02-.03.04-.05.09-.02.16.08.21.4.08.32-.13-.02-.04-.04-.07-.07-.08.08-.04.13-.14.07-.24-.06-.1-.17-.09-.25-.04-.05,0-.11.01-.15.05,0,0,0-.02-.02-.03-.15-.14-.36.06-.27.21-.06.2.24.32.32.12Z"/>
    <path class="cls-1" d="M71.33,36.91c.08-.2-.23-.34-.32-.13-.03.07,0,.13.03.17-.04.03-.07.08-.07.14-.07,0-.14.05-.15.14-.01.09.04.16.11.18,0,.01,0,.02,0,.03.02.18.24.19.32.07.05-.02.09-.07.09-.14,0-.04-.01-.06-.03-.09,0-.05,0-.1-.02-.14.01-.05,0-.11-.03-.15.03-.02.05-.04.07-.08Z"/>
    <path class="cls-1" d="M72.25,33.05c.09-.04.16-.14.09-.25-.08-.12-.23-.08-.29,0-.02,0-.04,0-.06.01-.1.04-.11.14-.08.22-.02-.01-.04-.02-.06-.03-.22-.05-.29.28-.08.33.15.04.23-.12.19-.23.03.03.08.04.13.03.06,0,.13-.02.16-.1Z"/>
    <path class="cls-1" d="M73.58,31.09s0-.01,0-.02c0,0,0-.02,0-.02.02.02.04.04.08.05.21.07.32-.25.11-.32-.12-.04-.2.04-.22.14-.07-.09-.24-.11-.3.03-.01.03-.01.05-.01.07,0,.16.25.25.33.07Z"/>
    <path class="cls-1" d="M77.36,28.37c-.08.2.23.34.32.13,0-.01,0-.02,0-.03.02.02.04.04.08.05.04.01.07.01.1,0,.13.14.38-.03.27-.21-.05-.07-.12-.09-.18-.07-.02-.02-.04-.04-.07-.05-.12-.04-.2.04-.22.14-.07-.09-.24-.11-.3.03Z"/>
    <path class="cls-1" d="M77.79,33.52c-.08.2.23.34.32.13.08-.2-.23-.34-.32-.13Z"/>
    <path class="cls-1" d="M72.54,29.73c-.15.16.09.4.24.24.15-.16-.09-.4-.24-.24Z"/>
    <path class="cls-1" d="M74.91,27.61c.22-.05.14-.38-.08-.33-.22.05-.14.39.08.33Z"/>
    <path class="cls-1" d="M76.54,27.72c-.03-.07-.09-.11-.19-.09-.2.05-.14.35.05.34.04.08.14.14.24.07.16-.1.05-.32-.1-.32Z"/>
    <path class="cls-1" d="M74.62,29.14c-.22.05-.14.38.08.33.22-.05.14-.38-.08-.33Z"/>
    <path class="cls-1" d="M76.5,32.11s-.02.03-.03.05c-.02-.02-.05-.03-.07-.03-.01,0-.02-.02-.03-.02.12-.06.14-.28-.03-.32-.12-.03-.2.07-.2.17-.11.02-.2.14-.12.26,0,0,0,0,0,0-.13.06-.1.26.02.31-.01.12.12.26.26.17.09-.06.09-.15.05-.22.03,0,.07,0,.11-.01.04-.02.07-.05.08-.09.06.04.15.05.21-.02.15-.16-.09-.4-.24-.24Z"/>
    <path class="cls-1" d="M80.31,24.75c-.16-.15-.4.09-.24.25.16.15.4-.09.24-.25Z"/>
    <path class="cls-1" d="M81.15,27.76c.16.15.4-.09.24-.25-.16-.15-.4.09-.24.25Z"/>
    <path class="cls-1" d="M77.39,29.21c.16.15.4-.09.24-.25-.16-.15-.4.09-.24.25Z"/>
    <path class="cls-1" d="M76.32,21.43s.03.02.05.02c.05.01.1,0,.13-.02.03.02.06.04.11.04.22,0,.22-.34,0-.34-.04,0-.07.01-.09.03-.02-.01-.04-.03-.07-.03-.13-.03-.22.09-.21.19-.16-.1-.36.12-.21.26.13.12.3,0,.29-.15Z"/>
    <path class="cls-1" d="M78.44,30.97c-.16-.15-.4.09-.24.25.16.15.4-.09.24-.25Z"/>
    <path class="cls-1" d="M74.98,32.12s0-.01,0-.02c.01,0,.02,0,.04,0,.19-.09.08-.36-.1-.32.01-.04,0-.09-.01-.13.06-.05.07-.13.04-.19.09-.03.12-.1.11-.17.04-.05.04-.12.01-.18.07-.06.1-.17.02-.25-.14-.14-.35.05-.27.2-.05.04-.06.09-.06.14-.02.02-.03.05-.03.08-.08.03-.14.12-.11.21-.1.02-.18.11-.14.23,0,.02.02.04.03.05-.06.02-.11.07-.11.13-.03-.11-.18-.2-.29-.09-.03.03-.04.05-.04.08-.07.03-.11.12-.1.19,0,0,0,0,0,0-.2-.09-.35.21-.15.31.14.07.26-.07.24-.19,0,0,.02,0,.03.01,0,.01.01.02.02.04.02.02.04.03.06.04,0,.15.22.25.32.09.07-.1,0-.21-.08-.24,0-.03,0-.06-.02-.09.02-.03.03-.06.04-.09,0,.01,0,.02,0,.03.05.12.17.13.25.08,0,.02,0,.04,0,.06-.06.14.12.32.26.2.06-.05.07-.12.05-.18ZM74.79,31.89s0,0,0,0c-.02,0-.03,0-.04.02,0,0,0-.02,0-.02.01,0,.03,0,.04,0Z"/>
    <path class="cls-1" d="M79.94,21.47c-.16-.15-.4.09-.24.25.16.15.4-.09.24-.25Z"/>
    <path class="cls-1" d="M81.3,23.17c-.16-.15-.4.09-.24.25.16.15.4-.09.24-.25Z"/>
    <path class="cls-1" d="M76.53,26.27c-.16-.15-.4.09-.24.25.16.15.4-.09.24-.25Z"/>
    <path class="cls-1" d="M78.48,24.31c-.16-.15-.4.09-.24.25.16.15.4-.09.24-.25Z"/>
    <path class="cls-1" d="M78.06,22.67c.16.15.4-.09.24-.25-.16-.15-.4.09-.24.25Z"/>
    <path class="cls-1" d="M80.11,31.15c.16.15.4-.09.24-.25-.16-.15-.4.09-.24.25Z"/>
    <path class="cls-1" d="M81.88,22.06c-.16-.15-.4.09-.24.25.16.15.4-.09.24-.25Z"/>
    <path class="cls-1" d="M78.13,20.96c-.16-.15-.4.09-.24.25.16.15.4-.09.24-.25Z"/>
    <path class="cls-1" d="M81.86,25.4c.16.15.4-.09.24-.25-.16-.15-.4.09-.24.25Z"/>
    <path class="cls-1" d="M78.32,32.95c.08-.04.14-.14.07-.24-.07-.11-.2-.09-.27-.01-.07.02-.12.08-.11.17.01.17.23.19.31.08Z"/>
    <path class="cls-1" d="M79.47,32.07s0-.09-.03-.12c.14-.05.16-.29-.02-.33-.07-.02-.13.01-.17.06-.03-.03-.07-.06-.13-.06-.05,0-.08.02-.11.04,0-.01,0-.03,0-.04,0-.09-.05-.14-.11-.16.01-.03.02-.06.02-.09,0-.02,0-.04-.01-.06,0,0,0-.01.01-.02.02-.06.01-.11-.01-.15.11,0,.21-.1.16-.23-.03-.06-.07-.09-.13-.1-.04-.04-.1-.06-.16-.04-.14.05-.14.21-.05.29-.05,0-.09.04-.12.1-.02.05-.02.1,0,.13-.02.03-.03.06-.02.1,0,.08.05.12.11.14-.01.02-.02.05-.02.08,0,.17.19.21.29.13-.03.1.03.22.16.22,0,0,.01,0,.02,0-.01.02-.02.04-.02.06-.02.16.16.23.26.16,0,.05,0,.1.06.14.17.14.39-.11.23-.26-.07-.06-.15-.05-.2,0Z"/>
    <path class="cls-1" d="M79.78,32.15c.12.19.41,0,.29-.18-.12-.19-.41,0-.29.18Z"/>
    <path class="cls-1" d="M80.21,24.4c.12.19.41,0,.29-.18-.12-.19-.41,0-.29.18Z"/>
    <path class="cls-1" d="M77.38,33.25c.03-.19-.23-.25-.32-.11,0,0-.01,0-.02,0,.06-.03.1-.08.1-.16-.02-.22-.36-.19-.34.03,0,.03.01.05.02.07-.1.03-.18.14-.1.25.04.07.1.08.16.07.02.03.04.05.07.06.07.14.32.12.33-.07.05-.02.1-.06.11-.13Z"/>
    <path class="cls-1" d="M75.78,33.67s.02-.09-.02-.14c-.09-.15-.29-.06-.31.07-.03.07-.02.14.03.18,0,.08.06.16.16.16.16,0,.2-.17.14-.27Z"/>
    <path class="cls-1" d="M75.15,26.49c-.12-.19-.41,0-.29.18.12.19.41,0,.29-.18Z"/>
    <path class="cls-1" d="M77.69,25.69c.12.19.41,0,.29-.18-.12-.19-.41,0-.29.18Z"/>
    <path class="cls-1" d="M79.33,26.87c.08.08.18.05.24,0,.06.08.16.09.23.04.13.02.27-.12.18-.26-.06-.1-.17-.09-.25-.04-.05,0-.11.01-.15.05,0,0,0-.02-.02-.03-.16-.15-.4.09-.24.25Z"/>
    <path class="cls-1" d="M79.59,29.05c-.13-.12-.37.05-.26.22.06.09.16.09.23.05.16.14.39-.1.23-.25-.07-.07-.15-.06-.21-.02Z"/>
    <path class="cls-1" d="M81.67,27.81c.12.19.41,0,.29-.18-.12-.19-.41,0-.29.18Z"/>
    <path class="cls-1" d="M81.94,25.94c.12.19.41,0,.29-.18-.12-.19-.41,0-.29.18Z"/>
    <path class="cls-1" d="M78.51,30.57c-.12-.19-.41,0-.29.18.12.19.41,0,.29-.18Z"/>
    <path class="cls-1" d="M82.11,24.47c.12.19.41,0,.29-.18-.12-.19-.41,0-.29.18Z"/>
    <path class="cls-1" d="M73.71,29.11c-.2-.09-.35.22-.15.31.2.09.35-.21.15-.31Z"/>
    <path class="cls-1" d="M70.01,38.35s.04.08.08.1c-.04.08-.04.19.07.24.03.02.06.02.09.01.16,0,.25-.24.08-.33.01-.03.02-.06,0-.1.02-.04.03-.08,0-.14-.02-.05-.06-.08-.1-.09.01-.01.02-.02.03-.03.1-.16-.1-.32-.23-.24-.02-.01-.03-.03-.05-.03.02-.02.03-.04.05-.06.03-.07.01-.12-.02-.16,0-.04-.01-.09-.06-.13-.16-.14-.36.08-.25.23,0,.08.06.14.13.16-.05.04-.07.09-.06.14-.03.07-.01.15.04.2-.04.09-.02.22.11.25.03,0,.06,0,.09,0Z"/>
    <path class="cls-1" d="M74.65,36.48s0,.04,0,.05c0,.04.01.09.06.12.08.07.17.05.23-.01.04.02.08.03.13.01.21-.07.1-.4-.11-.33-.02,0-.02.01-.04.02,0,0-.02-.02-.03-.02,0-.06-.02-.12-.09-.15-.2-.09-.34.2-.16.3Z"/>
    <path class="cls-1" d="M76.4,28.07c-.2-.09-.35.21-.15.31.2.09.35-.22.15-.31Z"/>
    <path class="cls-1" d="M77.79,31.89c-.21-.07-.32.25-.11.32.21.07.32-.25.11-.32Z"/>
    <path class="cls-1" d="M79.34,25.04c.21.07.32-.25.11-.32-.21-.07-.32.25-.11.32Z"/>
    <path class="cls-1" d="M75.65,21.97c.21.07.32-.25.11-.32-.21-.07-.32.25-.11.32Z"/>
    <path class="cls-1" d="M77.67,23.19c.21.07.32-.25.11-.32-.21-.07-.32.25-.11.32Z"/>
    <path class="cls-1" d="M77.17,24.98c.21.07.32-.25.11-.32-.21-.07-.32.25-.11.32Z"/>
    <path class="cls-1" d="M80.6,26.81c-.21-.07-.32.25-.11.32.21.07.32-.25.11-.32Z"/>
    <path class="cls-1" d="M78.87,29.65c.21.07.32-.25.11-.32-.21-.07-.32.25-.11.32Z"/>
    <path class="cls-1" d="M77.31,21.76c.21.07.32-.25.11-.32-.21-.07-.32.25-.11.32Z"/>
    <path class="cls-1" d="M72.41,37.71c-.04-.09-.16-.16-.26-.08-.16.13.01.36.18.29,0,.02.02.04.04.06.16.15.4-.09.24-.25-.06-.06-.14-.06-.19-.03Z"/>
    <path class="cls-1" d="M76.83,35.22c-.17.14.04.41.21.27.17-.14-.04-.41-.21-.27Z"/>
    <path class="cls-1" d="M76.04,34.28s0,0-.01.01c-.06-.03-.13-.02-.19.03-.04.04-.05.1-.04.14-.1.02-.19.14-.11.26.1.16.34.04.32-.11.03,0,.06-.02.08-.04.05.02.11.02.17-.02.17-.14-.04-.41-.21-.27Z"/>
    <path class="cls-1" d="M73.02,36.49s0-.1-.05-.15c0,0,0,0-.01-.01,0-.01.02-.02.03-.04.08-.2-.23-.34-.32-.13-.04.09,0,.16.06.2-.02.03-.04.06-.04.09,0-.01-.02-.03-.04-.04,0,0-.01-.02-.02-.03-.01-.04-.04-.07-.08-.09,0,0-.02,0-.02,0-.04-.05-.1-.07-.16-.06.03-.05.03-.11,0-.16,0-.02,0-.04,0-.06,0-.1-.08-.14-.15-.15.03-.03.05-.07.06-.12.11-.07.12-.28-.04-.32-.12-.03-.19.06-.2.16-.04.02-.06.06-.08.11-.02-.04-.06-.06-.11-.07-.15-.03-.23.13-.19.24-.06.03-.1.1-.09.17-.08-.01-.17.04-.19.12-.04-.03-.09-.05-.15-.03-.01,0-.02.01-.03.02-.1,0-.16.08-.17.16-.06.12.06.31.22.24.04-.02.07-.05.08-.09,0,0,0,0,0,0,.03-.01.05-.03.07-.05,0,.01,0,.02.02.03-.1.05-.16.19-.05.28.15.13.35-.07.26-.22.1-.04.12-.17.07-.26,0-.02.01-.05,0-.08.04,0,.09,0,.12-.03,0,0,0,0,.01,0,.02.06.08.11.15.12,0,0,0,0,0,.01-.03,0-.07,0-.11.03-.14.09-.07.28.06.31.02.02.04.04.08.05.02,0,.04,0,.06,0-.05.04-.06.1-.05.16-.02,0-.04.02-.06.03,0,0,0,0-.01.01-.04-.02-.09-.02-.13,0-.02-.04-.06-.07-.11-.08-.22-.05-.29.29-.07.34.04,0,.08,0,.11-.02.05.08.17.12.26.04.03.02.07.02.11,0,.02.01.04.02.06.03.02.01.04.02.06.03.15.04.24-.13.19-.24.02.01.04.02.06.02.08.02.14-.02.17-.07.05.04.1.04.15.02,0,0,0,0,0,0-.07.02-.12.08-.13.15-.06.04-.1.11-.06.2.07.18.32.11.33-.05.06-.05.09-.15.04-.23.09-.03.15-.12.13-.22.07-.05.1-.14.05-.23-.03-.05-.08-.07-.12-.07ZM72.07,35.92s0,0,0-.01c0,0,.01,0,.02,0,0,0,0,0-.01,0ZM71.97,35.85s-.01,0-.02,0c0,0,0,0,0,0,0,0,0,0,.01.01ZM72.31,36.69s-.09-.08-.15-.07c.03-.03.05-.08.05-.13.01,0,.03-.02.04-.03,0,.01.01.02.02.03,0,.06.02.12.07.16-.01,0-.02.02-.03.03ZM72.68,36.62s.02-.05.02-.07c0,.01.02.03.03.04.01,0,.02.01.03.02-.03,0-.06,0-.08.01Z"/>
    <path class="cls-1" d="M70.96,36.76c.08-.06.11-.18.02-.26-.06-.05-.13-.05-.19-.02-.04.01-.07.04-.09.08-.09-.02-.17.03-.2.11-.02-.03-.05-.05-.1-.06-.22-.05-.29.29-.07.34.03,0,.06,0,.08,0,.02.06.07.12.16.12.12,0,.17-.1.16-.19.02-.01.04-.04.06-.06,0,0,0,0,0,0,.07.02.12,0,.16-.05Z"/>
    <path class="cls-1" d="M62.99,36.68c-.22.05-.14.39.08.33.22-.05.14-.38-.08-.33Z"/>
    <path class="cls-1" d="M70.19,39.44c.16.15.4-.09.24-.25-.16-.15-.4.09-.24.25Z"/>
    <path class="cls-1" d="M73.95,35.62c-.11-.16-.34-.04-.31.12,0,0,0,0-.01,0,0-.09-.07-.17-.16-.17.06-.04.1-.11.07-.2-.02-.05-.06-.08-.1-.09.04-.02.08-.05.09-.1.03-.06.03-.14-.04-.2,0,0,0,0-.01,0,.03-.05.03-.12,0-.17.04.01.07.01.11,0,0,0,0,0,0,0,.21.07.32-.25.11-.32,0,0,0,0,0,0,0-.04,0-.09-.05-.12-.11-.11-.27-.01-.29.11,0,0,0,0,0,0-.02-.1-.12-.18-.24-.13,0,0,0,0,0,0-.02-.04-.05-.07-.11-.08-.02,0-.03,0-.05,0,.01-.09-.04-.19-.16-.19-.01,0-.02,0-.03,0-.16-.06-.32.16-.17.29.05.04.1.05.15.03.02,0,.03.01.05.01,0,0,0,0,0,0,0,.06.01.12.06.16-.12.02-.21.18-.1.29.05.05.12.06.17.04,0,.04.01.08.03.11-.19.08-.08.39.12.32.06-.02.09-.06.1-.11.02.05.06.08.11.09-.08.03-.13.11-.09.21.03.07.09.1.15.1-.12.08-.07.28.07.31-.02,0-.04.01-.06.03-.08.07-.07.16-.02.23-.12.11-.02.35.17.29,0,0,0,0,0,0,.03,0,.06,0,.09-.03.11-.07.09-.2.02-.27.03-.04.03-.09.01-.13.02,0,.04.01.05.02,0,.01,0,.03.01.04,0,0,0,0-.01.02-.08.2.23.34.32.13.02-.06.01-.11-.01-.15.03-.06.03-.12,0-.17.08-.08.08-.24-.04-.29ZM73.04,34.55s0,.01,0,.02c0,.03.01.05.03.07-.01.02-.02.04-.02.06,0-.04,0-.09-.05-.12,0,0-.01,0-.02-.01.02,0,.04,0,.06-.02Z"/>
    <path class="cls-1" d="M63.65,36.93c-.21-.07-.32.25-.11.32.21.07.32-.25.11-.32Z"/>
    <path class="cls-1" d="M73.86,28.97c-.02.05,0,.11.04.16.16.15.4-.09.24-.25-.04-.04-.08-.05-.12-.05.02-.13-.12-.27-.26-.18-.16.1-.05.31.09.31Z"/>
    <path class="cls-1" d="M77.73,34.16c-.06.04-.11.11-.07.2.08.2.37.09.32-.1.06-.04.11-.11.07-.2-.08-.2-.37-.09-.32.1Z"/>
    <path class="cls-1" d="M70.79,37.46s-.01-.04-.02-.06c-.12-.19-.41,0-.29.18,0,0,0,0,0,0,0,0,0,.01,0,.02.08.21.4.08.32-.13,0,0,0-.01-.01-.02Z"/>
    <path class="cls-1" d="M72.97,30.57s-.01.04-.01.06c0,.04.01.06.03.09-.13.09-.05.35.14.31.13-.03.15-.17.1-.26.04-.03.08-.07.08-.14,0-.14-.14-.19-.24-.15.02-.04.02-.1-.01-.15-.02-.02-.04-.04-.06-.05.02-.01.03-.03.05-.04,0,.02,0,.04.01.05.06.16.27.12.32-.01.15.08.34-.13.19-.27,0,0,0,0,0,0,.05-.09.02-.22-.11-.25-.18-.04-.26.2-.15.3,0,.01-.01.02-.02.03-.07-.03-.17,0-.22.05,0-.02,0-.03-.01-.05-.08-.21-.4-.08-.32.13.02.04.04.06.07.08-.07.05-.12.14-.06.23.05.09.15.09.22.06Z"/>
    <path class="cls-1" d="M72.3,35.28c.08.21.4.08.32-.13-.08-.21-.4-.08-.32.13Z"/>
    <path class="cls-1" d="M77.3,29.84c.08.21.4.08.32-.13-.08-.21-.4-.08-.32.13Z"/>
    <path class="cls-1" d="M75.29,36.56c-.02.14.16.28.29.15.01-.01.02-.03.03-.04.19,0,.24-.3.03-.34-.04,0-.08,0-.11.01-.07-.14-.33-.12-.33.07,0,.07.04.12.09.14Z"/>
    <path class="cls-1" d="M75.7,32.34s.06-.05.07-.08c0,0,0,0,.01,0,.2,0,.22-.27.07-.33.01-.01.02-.02.03-.04.09-.13-.04-.27-.16-.26.02-.02.04-.04.05-.07.1.04.18,0,.22-.08.1.02.22-.03.22-.16,0-.19-.24-.22-.32-.09-.09-.02-.16.03-.19.1-.01,0-.02,0-.04-.01-.18-.04-.26.18-.16.29-.04-.04-.09-.04-.14-.03-.04-.14-.25-.19-.32-.03-.06.14.07.24.19.23,0,.02,0,.03.02.05.01.02.02.03.04.04-.02.08,0,.16.1.2.05.02.09.01.12,0-.15.13.03.38.2.27ZM75.63,32.03s-.06,0-.09.02c.03-.03.05-.07.06-.11,0,0,.02,0,.03,0,.02.01.03.02.05.03-.02.02-.04.04-.05.07Z"/>
    <path class="cls-1" d="M74.28,28.57s.01,0,.02,0c-.05.09-.03.22.1.25.04,0,.07,0,.1,0-.05.05-.08.13-.03.21.12.19.41,0,.29-.18-.05-.08-.14-.09-.21-.06.03-.03.04-.08.04-.13,0,0,0,0,0,0,.18.04.26-.17.17-.28.07-.08.08-.21-.04-.27-.14-.07-.26.07-.24.19,0,0,0,0-.01,0-.02,0-.04,0-.06.01-.03-.04-.07-.08-.14-.08-.22,0-.22.34,0,.34Z"/>
    <path class="cls-1" d="M72.36,32.08c.1,0,.15-.07.16-.15.05.07.14.11.23.05.01,0,.02-.02.03-.03.16.12.37-.13.21-.27-.02-.01-.03-.02-.05-.03,0,0,0-.01,0-.02-.07-.17-.29-.11-.33.03,0-.03-.02-.06-.04-.08-.14-.13-.33.03-.28.18-.13.07-.11.32.08.32Z"/>
    <path class="cls-1" d="M69.47,34.3c.07.07.16.06.21.01.01,0,.02.01.04.02.04,0,.07,0,.1-.01.01,0,.03.01.05.01.08,0,.13-.04.15-.1,0,.04.02.08.05.11-.01,0-.03.02-.04.03-.03.03-.04.05-.04.08-.07.03-.11.12-.1.19,0,0,0,0,0,0-.19-.09-.33.19-.16.3,0,0,0,0-.01,0-.03.01-.05.03-.06.05-.18,0-.24.29-.03.34,0,0,0,0,0,0,.02.07.1.11.17.11,0,.07.04.14.13.16.09.02.15-.03.18-.09,0,0,.02,0,.03,0,0,.01.02.02.03.03-.05.04-.07.09-.06.15-.04-.04-.1-.07-.17-.04-.06.02-.1.07-.11.12-.14-.03-.29.16-.16.29.11.1.25.03.28-.08.03,0,.06,0,.1,0,.09-.03.12-.11.11-.19.05.06.13.09.21.04.01,0,.02-.02.03-.02,0,.04.03.07.07.09-.02.02-.04.05-.04.08-.02-.03-.04-.06-.09-.07-.11-.04-.19.03-.22.12-.03,0-.05,0-.08.03-.05.03-.07.07-.08.12-.04,0-.08.03-.11.07-.1.15.07.3.2.25.04.06.12.09.2.05.13-.06.11-.22.03-.29,0,0,0,0,0-.02.08,0,.13-.07.14-.14,0,.01.02.03.03.04,0,.02-.01.04-.01.06-.05.06-.07.15,0,.23.11.11.27.01.29-.11.05-.06.04-.15,0-.21.06,0,.12-.03.15-.08.11.11.34,0,.28-.18.1-.01.19-.13.15-.23.02,0,.04-.01.06-.02.1-.06.09-.17.04-.24,0,0,0-.01,0-.02,0-.05-.02-.09-.05-.12-.03-.05-.09-.09-.17-.07-.04,0-.06.03-.08.05-.06-.02-.12-.02-.18.03-.14.14.04.34.19.27,0,0,0,.01,0,.01-.1.02-.18.13-.14.23,0,0-.01,0-.02,0,0-.13-.17-.25-.29-.13,0,0-.01.02-.02.03-.02-.03-.05-.05-.09-.06-.07-.02-.12,0-.16.05,0-.03-.02-.05-.04-.07.04-.03.07-.08.07-.15,0-.04-.02-.07-.04-.09.02-.05.02-.1-.01-.15-.05-.07-.12-.09-.18-.07-.02-.02-.04-.04-.07-.05-.09-.03-.16.01-.2.08,0-.06-.03-.12-.08-.16.02,0,.04-.02.06-.04.03.03.06.05.11.05.03,0,.06,0,.08-.02.07.08.21.11.28,0,.03-.05.03-.1.02-.15.05.03.11.03.17,0,.01.03.03.05.05.07,0,0,0,0,0,0-.03.03-.05.06-.06.09-.06.01-.12.06-.13.14-.03.21.27.25.33.08.02,0,.04-.02.07-.03.1-.08.07-.19,0-.25,0,0,0,0,.01,0,.04-.03.06-.06.06-.1.02-.03.02-.07.02-.11,0,0,0,0,.01,0,.01,0,.02-.02.03-.02.04.03.1.04.16.01.04-.02.06-.04.08-.07.02.03.04.05.08.07.13.05.23-.07.22-.18.07.09.21.12.28,0,.09-.13-.04-.27-.16-.26.02-.02.04-.04.05-.07.1.04.18,0,.22-.08.03,0,.07,0,.1,0,.11.03.25-.05.22-.19.02.02.04.03.06.04.03.01.06.01.09,0,.03.07.1.12.19.1.06-.01.1-.05.11-.1.02.02.04.03.06.04.21.07.32-.25.11-.32-.1-.04-.18.02-.21.1-.03-.03-.06-.05-.11-.06.01-.01.02-.03.03-.06.02,0,.05,0,.08-.03.1-.07.09-.18.03-.25.02,0,.03,0,.05,0,.16-.04.16-.24.05-.31,0-.06-.03-.13-.08-.17.02-.06,0-.11-.04-.15.07-.06.08-.15.03-.22.05-.08.03-.2-.08-.25,0-.06-.03-.11-.09-.14-.17-.08-.3.14-.21.26-.03.02-.05.06-.06.09-.04-.08-.14-.12-.23-.06-.19.12,0,.41.18.29.01,0,.02-.02.02-.02.03.06.09.1.15.1-.03.08.01.16.08.2-.02.07.01.15.07.19,0,.05.01.1.04.13-.03,0-.07,0-.1.02-.04.03-.06.06-.07.09-.05,0-.1.03-.13.08-.01-.02-.03-.03-.05-.04-.06-.06-.15-.05-.21,0-.05,0-.09,0-.13.04-.05-.18-.35-.15-.33.06,0,0,0,.02,0,.02,0,.03,0,.06,0,.09,0,.04.04.08.09.11.01,0,.03.01.04.01-.03.03-.04.07-.04.1-.02.02-.03.03-.04.06-.01,0-.02,0-.04-.01-.08-.02-.14.02-.17.07-.09-.07-.2-.02-.25.06-.07-.02-.16,0-.2.09-.04.09,0,.16.07.2,0,0-.02,0-.03,0-.01,0-.02.02-.03.02-.03-.02-.07-.03-.12-.02.01-.04,0-.09-.01-.13.06-.05.07-.13.04-.19.15-.05.13-.24.03-.31.13-.01.23-.18.11-.29-.16-.15-.4.09-.24.25.01.01.03.02.04.03-.02,0-.03,0-.05,0-.07.02-.1.08-.11.13-.03.01-.05.03-.07.05,0,0,0,0-.01,0,.04-.05.05-.12,0-.19,0,0,0,0,0,0,.06-.05.08-.14.04-.21.01-.11-.07-.22-.21-.19-.1.02-.14.11-.12.19-.02,0-.03,0-.05,0,.01-.08-.03-.17-.13-.19-.22-.05-.29.29-.07.34.03,0,.05,0,.07,0,0,.09.07.18.16.19,0,0,0,0,0,0-.1.02-.19.13-.13.24-.04.02-.06.05-.08.08,0-.08-.06-.16-.16-.16-.03,0-.05,0-.07.01,0,0,0,0-.01,0-.06-.01-.1,0-.14.03-.15-.07-.33.14-.19.28ZM70.54,34.18s.01-.01.02-.02c0,0,0,0,0,0,0,0,0,.01-.01.02,0,0,0,0,0,0ZM70.3,34.41s0,0,0,0c0-.01-.02-.03-.03-.04,0,0,0,0,.01,0,0,.02,0,.03.02.04ZM71.41,34.21s.04.03.07.03c.02,0,.03,0,.05,0-.01.01-.03.02-.04.04-.02.04-.03.07-.02.1-.02-.03-.04-.05-.08-.06-.1-.03-.17.02-.2.09-.01-.02-.03-.04-.05-.05.04,0,.07-.04.1-.08.07.01.13-.02.17-.07ZM70.7,34.46s0,.05,0,.08c-.02,0-.04.02-.05.03,0,0-.01-.01-.02-.02.02-.03.03-.06.02-.09.01,0,.03,0,.04,0Z"/>
    <path class="cls-1" d="M69.39,35.34c-.22,0-.22.34,0,.34.22,0,.22-.34,0-.34Z"/>
    <path class="cls-1" d="M75.12,26.2c.14,0,.19-.14.15-.25.01.01.03.02.05.03.04.01.07.01.1,0-.04.08-.02.18.06.22-.04,0-.08,0-.12.02-.19.12,0,.41.18.29.12-.08.08-.23,0-.29.21.03.27-.29.06-.34-.03,0-.05,0-.07,0,.04-.08.02-.2-.09-.24-.16-.05-.26.11-.21.23-.03-.02-.06-.03-.1-.03-.22,0-.22.34,0,.34Z"/>
    <path class="cls-1" d="M73.68,30.7s.07-.01.1-.03c.13,0,.19-.16.13-.26.07-.03.11-.11.1-.18.15.08.34-.13.19-.27,0,0-.02-.01-.03-.02.06-.04.09-.12.08-.19.04.03.1.05.17.02.2-.09.06-.4-.14-.31,0,0-.02-.01-.03-.02.17-.02.22-.29.02-.34-.2-.05-.28.23-.12.31-.01,0-.02,0-.04,0-.1.03-.12.12-.11.2-.13-.11-.36.05-.25.22,0,0,.01.01.02.02.02.04.05.07.11.09.05.01.08,0,.11-.02,0,0,0,0,0,0-.06.03-.1.1-.09.17-.01,0-.02-.01-.03-.01-.16-.03-.24.15-.18.26-.01,0-.02.01-.04.02-.21,0-.21.34,0,.34Z"/>
    <path class="cls-1" d="M74.82,30s.02,0,.02.01c-.05.17.2.31.31.14.06-.09.02-.19-.06-.23,0-.02.01-.03.01-.05.02,0,.04-.02.06-.04.07-.07.06-.17,0-.23.07-.09.05-.25-.09-.28-.17-.04-.25.17-.17.28-.03.04-.04.08-.04.12-.1.05-.16.19-.05.28Z"/>
    <path class="cls-1" d="M75.24,32.21c-.17-.14-.39.11-.23.26.17.14.39-.11.23-.26Z"/>
    <path class="cls-1" d="M76.86,31.24c.08.21.4.08.32-.13-.02-.06-.07-.09-.12-.1.12-.03.19-.19.08-.3-.17-.14-.39.11-.23.26.03.02.05.03.08.04-.09.02-.17.11-.13.23Z"/>
    <path class="cls-1" d="M76.7,28.14c-.21-.05-.29.28-.08.33-.05.09-.02.22.11.25.21.04.28-.28.08-.33.05-.09.02-.22-.1-.25Z"/>
    <path class="cls-1" d="M74.22,31.32c-.1-.02-.16.03-.19.11-.02,0-.04-.01-.06-.01-.07,0-.12.04-.15.09,0,0,0-.01-.01-.02-.1-.1-.23-.04-.27.06-.16-.14-.39.1-.23.25.1.1.23.04.27-.06.09.08.21.04.26-.05.03.04.07.07.13.07.08,0,.14-.05.16-.11,0,0,.01,0,.02,0,.22.05.29-.28.08-.33Z"/>
    <path class="cls-1" d="M77.46,26.07c-.22-.05-.29.28-.08.33.22.05.29-.28.08-.33Z"/>
    <path class="cls-1" d="M78.7,29.93c.08-.06.11-.18.02-.26-.06-.05-.13-.05-.19-.02-.14.05-.17.29.01.33.07.02.12,0,.16-.05Z"/>
    <path class="cls-1" d="M75.81,32.93s.04.02.06.03c.22.05.29-.28.08-.33,0,0-.02,0-.03,0-.08-.04-.18-.02-.23.08-.05.11.03.2.12.22Z"/>
    <path class="cls-1" d="M76.2,23.74c-.21-.05-.29.28-.08.33.16.11.37-.11.22-.26-.02-.02-.04-.03-.07-.04-.02-.01-.04-.02-.06-.03Z"/>
    <path class="cls-1" d="M79.52,26.51c.22.05.29-.28.08-.33-.22-.05-.29.28-.08.33Z"/>
    <path class="cls-1" d="M77.55,31.58c-.22-.05-.29.28-.08.33.22.05.29-.28.08-.33Z"/>
    <path class="cls-1" d="M77.94,24.83c-.22-.05-.29.28-.08.33.22.05.29-.28.08-.33Z"/>
    <path class="cls-1" d="M76.01,26.08c.22.05.29-.28.08-.33-.22-.05-.29.28-.08.33Z"/>
    <path class="cls-1" d="M74.17,35.91c-.03.22.31.26.34.04.03-.22-.31-.26-.34-.04Z"/>
    <path class="cls-1" d="M77.57,32.35c.02-.1-.03-.22-.16-.22-.05,0-.09.02-.12.05,0,0-.02,0-.03-.01.13-.09.06-.26-.05-.3.02-.08-.01-.18-.12-.2-.06-.01-.11,0-.14.03.02-.06.02-.13-.05-.19-.17-.14-.39.11-.23.26.08.07.16.05.22,0-.03.07-.01.16.05.2-.12.02-.21.18-.1.29.05.05.12.06.17.04,0,.04.01.08.03.11-.17.07-.1.32.06.33,0,.04.02.08.06.12.15.13.34-.06.27-.2.17.01.23-.21.12-.3ZM77.3,32.55s-.01-.06-.03-.08c.01,0,.03-.01.04-.02,0,0,0,0,0,0,0,.03,0,.07,0,.1,0,0-.01,0-.02,0Z"/>
    <path class="cls-1" d="M67.2,35.69c-.06-.01-.11,0-.15.05,0-.02-.01-.05-.03-.07,0-.01-.02-.02-.03-.03.07-.06.07-.15.03-.22.04-.06.05-.13.02-.19,0,0,0-.02.01-.03,0,0,.02,0,.03,0,.22,0,.22-.34,0-.34-.06,0-.11.03-.13.07-.1-.03-.19.05-.2.14-.01.02-.02.04-.02.06-.02,0-.03,0-.05.01-.03-.04-.07-.08-.14-.08-.22,0-.22.34,0,.34,0,0,.01,0,.02,0-.01.02-.02.04-.02.06-.01,0-.03-.02-.04-.03-.12-.04-.21.05-.22.15-.03-.1-.14-.17-.25-.1-.19.12,0,.41.18.29.05-.03.07-.07.08-.11.02.04.05.07.1.09.12.04.21-.05.22-.14.02.01.03.03.06.03.04,0,.07,0,.1,0-.05.05-.08.13-.03.21.07.11.19.09.27.02,0,.07.04.14.13.16.22.05.29-.29.07-.34Z"/>
    <path class="cls-1" d="M75.54,31.02s.08,0,.11-.01c.06.16.34.12.33-.08-.01-.14-.15-.18-.24-.14-.02-.05-.05-.09-.12-.11-.22-.05-.29.29-.07.34Z"/>
    <path class="cls-1" d="M73.99,33.89c-.05-.12-.17-.12-.26-.07-.01-.01-.03-.03-.04-.04.12-.09.06-.26-.05-.3.02-.02.03-.04.05-.06.03-.07.01-.12-.02-.16,0-.04-.01-.09-.06-.13-.02-.02-.05-.03-.08-.04.18-.04.17-.34-.04-.34-.21,0-.22.31-.03.34-.11.03-.18.16-.11.26,0,.08.06.14.13.16-.11.08-.07.22.02.28-.06.05-.08.14-.05.21.02.06.07.12.14.13.01.03.04.06.08.08.02.01.05.02.07.02-.02.07,0,.15.09.2.04.02.08.02.12,0-.04.05-.06.12-.01.19.12.19.41,0,.29-.18-.05-.08-.13-.09-.2-.06.06-.08.07-.21-.05-.27,0,0-.01,0-.02,0,.02-.03.03-.06.03-.09.02-.04.03-.08,0-.14Z"/>
    <path class="cls-1" d="M76.62,34.76c-.22-.05-.29.29-.07.34.22.05.29-.29.07-.34Z"/>
    <path class="cls-1" d="M67.99,35.38s-.06,0-.1.01c-.19.09-.08.36.1.32.06,0,.13-.02.16-.1.05-.13-.06-.23-.17-.23Z"/>
    <path class="cls-1" d="M69.17,33.54s-.02.08,0,.12c-.04-.04-.09-.06-.16-.05-.14.03-.15.18-.09.27-.13.12,0,.36.19.28.11-.05.11-.18.06-.26.05-.05.06-.13.04-.19.08.08.23.09.29-.04.08-.2-.23-.34-.32-.13Z"/>
    <path class="cls-1" d="M77.05,30.34c.16.15.4-.09.24-.25-.16-.15-.4.09-.24.25Z"/>
    <path class="cls-1" d="M78.17,32.37c-.16-.15-.4.09-.24.25.16.15.4-.09.24-.25Z"/>
    <path class="cls-1" d="M75.61,24.29c.16.15.4-.09.24-.25-.16-.15-.4.09-.24.25Z"/>
    <path class="cls-1" d="M78.88,26.3c.16.15.4-.09.24-.25-.16-.15-.4.09-.24.25Z"/>
    <path class="cls-1" d="M77.21,25.74c-.16-.15-.4.09-.24.25.16.15.4-.09.24-.25Z"/>
    <path class="cls-1" d="M77.55,24.88c.16.15.4-.09.24-.25-.16-.15-.4.09-.24.25Z"/>
    <path class="cls-1" d="M77.72,27.79c-.16.05-.15.33.05.33.09,0,.14-.05.16-.12.1-.04.17-.18.07-.28-.1-.1-.23-.03-.28.07Z"/>
    <path class="cls-1" d="M77.69,33.82c.09-.12-.02-.32-.19-.27-.12.04-.13.17-.08.26-.01.02-.02.03-.03.05-.05.03-.08.08-.07.15.02.2.29.19.33.03.06-.06.07-.15.03-.22Z"/>
    <path class="cls-1" d="M74.23,35.52s.09-.02.13-.07c.12-.18-.16-.36-.28-.19-.04-.02-.08-.02-.13,0-.18.08-.08.34.09.32.07.02.16,0,.2-.06Z"/>
    <path class="cls-1" d="M75.41,34.63s-.01-.04-.03-.06c0-.02,0-.04,0-.06.09-.08.09-.27-.06-.3-.07-.02-.13.01-.17.06-.03-.03-.07-.05-.12-.06,0,0,0,0,.01,0,.08-.06.11-.18.02-.26-.06-.05-.13-.05-.19-.02-.02,0-.03.02-.05.03,0-.01,0-.03-.01-.04,0,0,0-.01.01-.02.02-.06.01-.1,0-.14.02-.02.03-.05.03-.08.04-.04.06-.09.05-.15.1-.05.15-.19.05-.28-.09-.08-.19-.04-.25.03,0,0,0,0-.01,0-.11-.03-.18.05-.2.13-.02-.03-.04-.05-.07-.06.03-.05.03-.11,0-.17-.06-.09-.16-.09-.23-.05-.04-.04-.1-.07-.17-.04-.21.07-.1.4.11.33.01,0,.02-.01.03-.02.02.01.03.03.05.03,0,0-.01.02-.01.03-.03,0-.05,0-.08.03-.1.06-.09.17-.04.24,0,.03.02.07.05.1.13.13.31-.02.29-.16.06-.02.09-.07.11-.13,0,.01.02.03.03.04,0,.02-.01.04-.01.06-.04.05-.06.12-.02.19,0,.03,0,.06.01.08-.02.03-.03.06-.02.1,0,.08.05.12.11.14-.01.02-.02.05-.02.08,0,.17.19.21.29.13-.02.09.02.19.13.21-.04.02-.08.06-.09.12-.01.09.04.16.11.18,0,.01,0,.02,0,.03.02.19.27.19.33.05.17.14.39-.12.22-.26-.06-.05-.12-.05-.17-.03Z"/>
    <path class="cls-1" d="M76.1,26.85c-.09,0-.15.06-.16.13-.18,0-.23.29-.03.34.04,0,.07,0,.1,0-.08.06-.12.17-.03.26.16.15.4-.09.24-.25-.05-.05-.12-.06-.17-.04.03-.02.05-.06.06-.1.09,0,.14-.07.15-.14.12,0,.23-.13.15-.26-.09-.14-.28-.07-.31.06Z"/>
    <path class="cls-1" d="M73,35.68s0,0,0,0c.04-.03.06-.08.05-.14-.02-.22-.36-.19-.34.03,0,.07.05.11.09.13-.05.05-.06.11-.04.17,0,.03,0,.06.03.09.02.03.05.05.07.06.07.14.32.12.33-.07.05-.02.1-.06.11-.13.02-.18-.19-.24-.29-.14Z"/>
    <path class="cls-1" d="M77.58,30.39c.12.19.41,0,.29-.18-.12-.19-.41,0-.29.18Z"/>
    <path class="cls-1" d="M77.99,26.99c-.11.02-.2.14-.13.26,0,0,.01.01.02.02.02.04.05.07.11.09.05.01.08,0,.11-.02,0,0,0,0,0,0-.09.05-.14.18-.04.27.16.15.4-.09.24-.25,0,0-.02-.01-.03-.02.1-.06.13-.22.01-.29.04-.05.05-.12,0-.19-.11-.17-.35-.04-.31.13Z"/>
    <path class="cls-1" d="M70.71,38.75c-.2-.09-.35.21-.15.31.2.09.35-.21.15-.31Z"/>
    <path class="cls-1" d="M68.41,33.33s.04.04.08.06c.04.02.08.01.12,0,.09.04.18-.01.22-.09.01.01.03.02.04.03-.09.11-.01.32.16.28.13-.03.15-.17.1-.26.04-.03.08-.07.08-.14,0-.03,0-.05-.01-.07.09-.06.09-.16.04-.23.02-.02.03-.03.04-.06.15.08.34-.13.19-.27-.1-.1-.24-.03-.28.07-.12-.06-.3.05-.24.21,0,0,0,.02.01.03-.03.03-.04.07-.04.11-.04,0-.08.01-.12.05-.01.01-.02.03-.03.05-.05-.05-.12-.05-.17-.03,0,0,0,0-.01,0,0,0,0,0,0,0-.07-.06-.19-.07-.25.03-.06.1-.01.19.06.23Z"/>
    <path class="cls-1" d="M75.36,27.3c-.21-.07-.32.25-.11.32,0,0,.02,0,.02,0-.03.07-.01.16.07.21-.13.07-.11.32.08.32.03,0,.06,0,.08-.02,0,.03.02.06.05.09.16.15.4-.09.24-.25-.07-.06-.15-.06-.21-.02,0-.05-.03-.1-.08-.13.11-.07.13-.26-.03-.31,0,0-.02,0-.02,0,.03-.08.01-.18-.1-.22Z"/>
    <path class="cls-1" d="M72.74,37.8c-.17.14.04.41.21.27.17-.14-.04-.41-.21-.27Z"/>
    <path class="cls-1" d="M65.11,39.29s-.06.07-.06.11c-.06.04-.09.11-.06.19.07.17.29.11.33-.03,0,0,0,0,0,0,.17-.14-.04-.41-.21-.27Z"/>
    <path class="cls-1" d="M53.04,39.24c0,.22.34.22.34,0,0-.22-.34-.22-.34,0Z"/>
    <path class="cls-1" d="M53.58,39.5c-.12.19.17.37.29.18.12-.19-.17-.37-.29-.18Z"/>
    <path class="cls-1" d="M56.85,38.05c-.2-.09-.35.21-.15.31.2.09.35-.21.15-.31Z"/>
    <path class="cls-1" d="M57.23,39.03c.17-.14-.04-.41-.21-.27-.17.14.04.41.21.27Z"/>
  </g>
  <g>
    <path class="cls-1" d="M9.4,79.44l-2.22-10.3h2.93l1.41,7.47h.3l1.51-7.47h3.63l1.51,7.47h.3l1.41-7.47h2.93l-2.22,10.3h-4.24l-1.41-7.07h-.2l-1.41,7.07h-4.24Z"/>
    <path class="cls-1" d="M23.91,79.44v-14.13h2.83v5.25h.1c.28-.48.7-.89,1.26-1.22.56-.33,1.22-.49,1.97-.49,1.28,0,2.27.37,2.98,1.12.71.75,1.06,1.82,1.06,3.22v6.26h-2.83v-5.85c0-.75-.19-1.33-.57-1.73s-.9-.6-1.55-.6c-.43,0-.83.11-1.2.34s-.67.55-.89.97c-.22.42-.33.89-.33,1.41v5.45h-2.83Z"/>
    <path class="cls-1" d="M37.09,67.83c-.44,0-.82-.15-1.14-.45s-.47-.66-.47-1.06.16-.76.47-1.06.7-.45,1.14-.45.82.15,1.14.45.47.66.47,1.06-.16.76-.47,1.06-.7.45-1.14.45ZM35.68,79.44v-10.3h2.83v10.3h-2.83Z"/>
    <path class="cls-1" d="M44.59,79.75c-1,0-1.85-.17-2.56-.51-.71-.34-1.28-.79-1.71-1.33-.42-.55-.72-1.14-.88-1.79h2.93c.15.36.41.67.78.93.37.26.85.38,1.44.38s1.06-.09,1.32-.26c.26-.17.39-.42.39-.75,0-.2-.09-.37-.27-.49s-.41-.23-.69-.3c-.28-.07-.66-.16-1.16-.27-.89-.19-1.61-.38-2.16-.59-.55-.2-1.04-.52-1.45-.97-.42-.44-.63-1.05-.63-1.82,0-.55.17-1.07.5-1.54.34-.48.83-.86,1.49-1.15.66-.29,1.44-.43,2.34-.43,1.43,0,2.54.32,3.34.97.8.65,1.3,1.43,1.5,2.36h-2.83c-.11-.28-.33-.52-.67-.72-.34-.19-.79-.29-1.35-.29-.32,0-.59.04-.8.11s-.36.17-.46.29c-.1.12-.15.26-.15.4,0,.2.09.37.27.49.18.13.41.23.69.3.28.07.66.17,1.16.27.89.19,1.61.38,2.16.59.55.2,1.04.52,1.45.97.42.44.63,1.05.63,1.82,0,.59-.18,1.14-.54,1.65-.36.5-.9.91-1.6,1.22-.7.31-1.53.46-2.5.46Z"/>
    <path class="cls-1" d="M50.37,79.44v-14.13h2.83v7.67h1.21l2.73-3.84h3.13l-3.33,4.74,3.63,5.55h-3.23l-2.62-4.04h-1.51v4.04h-2.83Z"/>
    <path class="cls-1" d="M65.56,79.75c-1.02,0-1.96-.24-2.81-.73s-1.52-1.14-2.01-1.98c-.49-.83-.74-1.75-.74-2.75s.24-1.91.74-2.75c.49-.83,1.16-1.49,2.01-1.98s1.78-.73,2.81-.73,1.99.24,2.82.73,1.47,1.14,1.94,1.98c.46.83.7,1.75.7,2.75v.61h-8.07c.07.43.23.83.47,1.2.25.37.56.67.94.89s.78.33,1.21.33c.59,0,1.09-.12,1.48-.35.4-.24.68-.52.84-.86h3.03c-.31,1.01-.92,1.87-1.82,2.57-.9.71-2.08,1.06-3.53,1.06ZM67.98,73.18c-.07-.35-.21-.67-.43-.96-.22-.29-.5-.52-.85-.7-.34-.17-.72-.26-1.14-.26s-.8.09-1.15.26c-.35.18-.64.41-.87.7-.23.29-.4.61-.5.96h4.95Z"/>
    <path class="cls-1" d="M74.84,83.28l1.11-3.84h-2.22l-2.73-10.3h2.93l2.02,7.87h.81l2.22-7.87h2.93l-4.14,14.13h-2.93Z"/>
    <path class="cls-1" d="M79.56,83.28v-2.32h2.83v-11.81h2.83v14.13h-5.65ZM83.8,67.83c-.44,0-.82-.15-1.14-.45s-.47-.66-.47-1.06.16-.76.47-1.06.7-.45,1.14-.45.82.15,1.14.45.47.66.47,1.06-.16.76-.47,1.06-.7.45-1.14.45Z"/>
    <path class="cls-1" d="M91.11,79.75c-.88,0-1.67-.23-2.39-.68-.72-.45-1.29-1.09-1.72-1.92-.42-.83-.64-1.78-.64-2.86s.21-2.03.64-2.86c.42-.83,1-1.47,1.72-1.92s1.52-.68,2.39-.68c.5,0,.96.08,1.37.23.42.15.78.35,1.09.6.31.24.56.5.77.79h.1v-1.31h2.83v10.3h-2.83v-1.31h-.1c-.2.28-.46.54-.77.79-.31.24-.67.44-1.09.6s-.88.23-1.37.23ZM91.82,77.32c.51,0,.97-.12,1.36-.36.4-.24.71-.59.93-1.05s.33-1,.33-1.62-.11-1.16-.33-1.61-.53-.81-.93-1.05c-.4-.24-.85-.36-1.36-.36-.47,0-.9.12-1.28.36-.38.24-.69.59-.91,1.05-.22.46-.33,1-.33,1.61s.11,1.16.33,1.62c.22.46.52.81.91,1.05.38.24.81.36,1.28.36Z"/>
    <path class="cls-1" d="M103.9,79.75c-1.02,0-1.96-.24-2.81-.73s-1.52-1.14-2.01-1.98c-.49-.83-.74-1.75-.74-2.75s.24-1.91.74-2.75c.49-.83,1.16-1.49,2.01-1.98s1.78-.73,2.81-.73,1.86.19,2.58.58c.73.38,1.31.88,1.74,1.48.43.61.74,1.27.93,1.98h-2.93c-.16-.44-.44-.82-.84-1.14-.4-.32-.89-.47-1.48-.47-.47,0-.91.13-1.31.38-.4.26-.72.61-.96,1.07-.24.46-.35.98-.35,1.57s.12,1.12.35,1.57c.24.46.56.81.96,1.07.4.26.84.38,1.31.38.59,0,1.09-.16,1.48-.47.4-.32.68-.7.84-1.14h2.93c-.16.71-.46,1.37-.89,1.98-.43.61-1.01,1.1-1.75,1.48-.73.38-1.61.58-2.61.58Z"/>
    <path class="cls-1" d="M110.19,79.44v-14.13h2.83v7.67h1.21l2.73-3.84h3.13l-3.33,4.74,3.63,5.55h-3.23l-2.62-4.04h-1.51v4.04h-2.83Z"/>
    <g>
      <path class="cls-1" d="M104.56,87.77c-.23,0-.42-.08-.58-.23s-.23-.35-.23-.58.08-.42.23-.58c.15-.15.35-.23.58-.23s.42.08.58.23c.15.15.23.35.23.58s-.08.42-.23.58-.35.23-.58.23Z"/>
      <path class="cls-1" d="M106.08,87.62v-5.15h1.41v.71h.05c.14-.24.35-.45.63-.61.28-.16.61-.25.98-.25.64,0,1.14.19,1.49.56.35.37.53.91.53,1.61v3.13h-1.41v-2.93c0-.38-.09-.66-.28-.86s-.45-.3-.78-.3c-.22,0-.42.06-.6.17s-.33.28-.44.48c-.11.21-.17.44-.17.71v2.73h-1.41Z"/>
      <path class="cls-1" d="M114.43,87.77c-.51,0-.98-.12-1.4-.36s-.76-.57-1-.99c-.25-.42-.37-.87-.37-1.37s.12-.96.37-1.37c.25-.42.58-.75,1-.99s.89-.36,1.4-.36.99.12,1.41.36.74.57.97.99c.23.42.35.87.35,1.37v.3h-4.04c.03.22.11.42.24.6.12.18.28.33.47.44s.39.17.61.17c.3,0,.54-.06.74-.18.2-.12.34-.26.42-.43h1.51c-.15.5-.46.93-.91,1.29-.45.35-1.04.53-1.77.53ZM115.64,84.49c-.03-.17-.11-.33-.22-.48-.11-.14-.25-.26-.42-.35-.17-.09-.36-.13-.57-.13s-.4.04-.58.13c-.17.09-.32.2-.43.35-.11.14-.2.3-.25.48h2.47Z"/>
      <path class="cls-1" d="M117.89,87.62v-3.94h-.66v-1.21h.66v-1.11h1.41v1.11h1.46v1.21h-1.46v2.73h1.51v1.21h-2.93Z"/>
    </g>
  </g>
</svg>