<?xml version="1.0" encoding="UTF-8"?>
<svg id="Layer_1" data-name="Layer 1" xmlns="http://www.w3.org/2000/svg" viewBox="0 0 1064 256">
  <defs>
    <style>
      .cls-1 {
        fill: #1d1d1d;
      }

      .cls-2 {
        fill: #fff;
      }

      .cls-3 {
        fill: #7f7f7f;
      }
    </style>
  </defs>
  <rect class="cls-1" x="-264.71" y="-68.74" width="1513.69" height="430.6"/>
  <g>
    <rect class="cls-2" x="24.23" y="24" width="208" height="207.99" rx="46.72" ry="46.72"/>
    <g>
      <path class="cls-1" d="M167.16,202.42l-2.33-2.29-15.26-15.02c20.2-8.18,34.45-27.98,34.45-51.11,0-8.3-1.83-16.18-5.13-23.24.12-.29.24-.59.36-.89,1.66-4.22,2.57-8.81,2.57-13.61,0-2.52-.25-4.98-.73-7.36l20.98-7.52-25.19-3.65c-6.41-11.13-18.44-18.63-32.21-18.63-12.58,0-23.71,6.26-30.43,15.83-.46.65-.9,1.32-1.31,2-.9,1.46-1.69,2.99-2.37,4.57h0c-.08.19-.16.38-.24.57-.38.92-.73,1.86-1.03,2.82,3.5-1.07,7.17-1.74,10.96-1.97.57-.92,1.2-1.8,1.87-2.64.3-.38.61-.75.94-1.11,5.02-5.64,12.33-9.19,20.47-9.19,15.13,0,27.4,12.27,27.4,27.4,0,.31,0,.63-.02.94-.06,1.63-.25,3.22-.58,4.76-3.95-2.42-8.23-4.36-12.76-5.73,3.95,4.06,7.18,8.82,9.49,14.07,1.6,3.63,2.77,7.49,3.42,11.53.41,2.53.63,5.12.63,7.76,0,22.93-16.13,42.1-37.66,46.78,13.04-10.3,21.51-26.15,21.85-43.98v-.08c0-.1,0-.19,0-.29,0-.25,0-.51,0-.76,0-.09,0-.18,0-.27,0-.09,0-.18,0-.27,0-.09,0-.18,0-.26,0-.03,0-.06,0-.09h0v-.02h0v-.09c-.08-3-.51-5.91-1.25-8.69-3.33-12.5-12.95-22.44-25.27-26.2-3.48-1.06-7.17-1.64-11-1.64-.52,0-1.04.01-1.55.03-3.02.12-5.94.6-8.73,1.39-2.34.66-4.58,1.55-6.71,2.63h0s-.02.03-.02.03c2.25-.53,4.53-.74,6.78-.67,2.98.09,5.91.67,8.68,1.72h0c.43.16.86.34,1.28.53,5.51,2.41,10.23,6.69,13.13,12.49,1.59,3.18,2.48,6.52,2.74,9.85.23,2.89-.02,5.79-.72,8.56-1.83,7.28-6.7,13.75-13.94,17.38v.02s-24.9,12.46-24.9,12.46l-5.14,2.57-.45.22-4.14,2.07-22.16,11.08-6.97,3.48h0s-12.16,21.71-12.16,21.71l-4.65,8.31h29.17l4.53-8.31,8.37-15.33,6.23-11.41,13.38,10.45h0s4.31,3.37,4.31,3.37l12.63,9.87h.01s3.89,3.05,3.89,3.05h-34.2l-10.63,8.31h142.41l-8.44-8.31h-42.68ZM137.13,202.42l-18.17-14.19h0l-2.06-1.61c4.67-1.63,9.07-3.86,13.1-6.58l8.4,8.27,14.34,14.11h-15.61Z"/>
      <path class="cls-1" d="M151.06,75.57c-.49-.1-1-.16-1.52-.16-2.2,0-4.18.96-5.53,2.49-1.17,1.31-1.88,3.04-1.88,4.93,0,.08,0,.17,0,.25.13,3.98,3.4,7.17,7.41,7.17,1.66,0,3.19-.55,4.43-1.47,1.73-1.29,2.88-3.32,2.98-5.63-.23.27-.49.51-.78.73-.82.61-1.83.97-2.92.97-2.65,0-4.8-2.1-4.89-4.73,0-.05,0-.11,0-.16,0-1.25.47-2.39,1.24-3.25.41-.46.91-.84,1.47-1.12Z"/>
      <path class="cls-1" d="M82.15,155.28l4.14-2.49.24-.14,7.3-4.4,15.18-9.14,2.3-1.39c1.6-1.17,2.98-2.68,4.04-4.51,2.42-4.19,2.55-9.07.77-13.19h0c-.79-1.84-1.96-3.53-3.47-4.93-.8-.75-1.7-1.42-2.69-1.99-2.31-1.34-4.83-1.97-7.32-1.98-5.03-.01-9.93,2.56-12.68,7.18,0,.01-.02.02-.02.04l-.33.59s-.01.02-.02.03l-8.08,14.43-1.12,1.99-3.69,6.58-1.8,3.21-12.24,21.85,16.23-9.77,3.26-1.96Z"/>
    </g>
    <g>
      <path class="cls-2" d="M358.59,110.78l-17.71,56.77h-9.74l-13.67-45.06-13.67,45.06h-9.74l-17.82-56.77h9.63l13.05,47.65,14.09-47.65h9.63l13.78,47.76,12.85-47.76h9.32Z"/>
      <path class="cls-2" d="M405.61,112.49c3.45,1.83,6.16,4.58,8.13,8.24,1.97,3.66,2.95,8.12,2.95,13.36v33.46h-9.32v-32.11c0-5.66-1.42-10-4.25-13-2.83-3-6.7-4.51-11.6-4.51s-8.93,1.55-11.86,4.66c-2.94,3.11-4.4,7.63-4.4,13.57v31.39h-9.43v-76.66h9.43v27.97c1.86-2.9,4.44-5.14,7.72-6.73,3.28-1.59,6.96-2.38,11.03-2.38,4.28,0,8.15.92,11.6,2.74Z"/>
      <path class="cls-2" d="M429.79,99.7c-1.24-1.24-1.87-2.76-1.87-4.56s.62-3.32,1.87-4.56c1.24-1.24,2.76-1.87,4.56-1.87s3.19.62,4.4,1.87c1.21,1.24,1.81,2.76,1.81,4.56s-.61,3.31-1.81,4.56c-1.21,1.24-2.68,1.86-4.4,1.86s-3.32-.62-4.56-1.86ZM438.9,110.78v56.77h-9.43v-56.77h9.43Z"/>
      <path class="cls-2" d="M460.71,166.26c-3.45-1.48-6.18-3.56-8.18-6.22-2-2.66-3.11-5.71-3.32-9.17h9.74c.27,2.83,1.61,5.15,3.99,6.94,2.38,1.8,5.51,2.69,9.38,2.69,3.59,0,6.42-.79,8.49-2.38,2.07-1.59,3.11-3.59,3.11-6.01s-1.11-4.33-3.32-5.54c-2.21-1.21-5.63-2.4-10.26-3.57-4.21-1.1-7.65-2.23-10.31-3.37-2.66-1.14-4.94-2.83-6.84-5.08-1.9-2.24-2.85-5.2-2.85-8.86,0-2.9.86-5.56,2.59-7.98,1.73-2.42,4.18-4.33,7.36-5.75,3.18-1.42,6.8-2.12,10.88-2.12,6.28,0,11.36,1.59,15.23,4.77,3.87,3.18,5.94,7.53,6.22,13.05h-9.43c-.21-2.97-1.4-5.35-3.57-7.15-2.18-1.79-5.09-2.69-8.75-2.69-3.38,0-6.08.73-8.08,2.18-2,1.45-3,3.35-3,5.7,0,1.86.6,3.4,1.81,4.61,1.21,1.21,2.73,2.17,4.56,2.9,1.83.72,4.37,1.54,7.61,2.43,4.07,1.11,7.39,2.19,9.95,3.26,2.55,1.07,4.75,2.68,6.58,4.82,1.83,2.14,2.78,4.94,2.85,8.39,0,3.11-.86,5.91-2.59,8.39-1.73,2.49-4.16,4.44-7.3,5.85-3.14,1.41-6.75,2.12-10.83,2.12-4.35,0-8.25-.74-11.71-2.23Z"/>
      <path class="cls-2" d="M535.67,167.55l-22.27-25.07v25.07h-9.43v-76.66h9.43v45.06l21.86-25.17h13.16l-26.73,28.28,26.83,28.49h-12.85Z"/>
      <path class="cls-2" d="M603.1,142.69h-45.37c.34,5.59,2.26,9.96,5.75,13.1,3.49,3.14,7.72,4.71,12.69,4.71,4.07,0,7.47-.95,10.2-2.85,2.73-1.9,4.64-4.44,5.75-7.61h10.15c-1.52,5.46-4.56,9.89-9.12,13.31s-10.22,5.13-16.99,5.13c-5.39,0-10.2-1.21-14.45-3.63-4.25-2.42-7.58-5.85-10-10.31-2.42-4.45-3.63-9.62-3.63-15.49s1.17-11.01,3.52-15.44c2.35-4.42,5.65-7.82,9.89-10.2,4.25-2.38,9.13-3.57,14.66-3.57s10.15,1.18,14.3,3.52c4.14,2.35,7.34,5.58,9.58,9.69,2.24,4.11,3.37,8.75,3.37,13.93,0,1.8-.1,3.7-.31,5.7ZM591.29,125.75c-1.59-2.59-3.75-4.56-6.47-5.91-2.73-1.35-5.75-2.02-9.06-2.02-4.76,0-8.82,1.52-12.17,4.56-3.35,3.04-5.27,7.25-5.75,12.64h35.84c0-3.59-.79-6.68-2.38-9.27Z"/>
      <path class="cls-2" d="M660.6,110.78l-34.19,83.5h-9.74l11.19-27.35-22.9-56.15h10.46l17.82,46,17.61-46h9.74Z"/>
      <path class="cls-2" d="M677.4,179.88c0,5.04-1.28,8.74-3.83,11.08-2.56,2.35-6.29,3.52-11.19,3.52h-5.49v-7.98h3.94c2.62,0,4.47-.52,5.54-1.55,1.07-1.04,1.61-2.8,1.61-5.28v-68.89h9.43v69.1ZM668.24,99.7c-1.21-1.24-1.81-2.76-1.81-4.56s.6-3.32,1.81-4.56c1.21-1.24,2.71-1.87,4.51-1.87s3.3.62,4.51,1.87c1.21,1.24,1.81,2.76,1.81,4.56s-.61,3.31-1.81,4.56c-1.21,1.24-2.71,1.86-4.51,1.86s-3.3-.62-4.51-1.86Z"/>
      <path class="cls-2" d="M690.94,123.68c2.35-4.38,5.58-7.79,9.69-10.2,4.11-2.42,8.68-3.63,13.73-3.63s9.29,1.07,12.95,3.21c3.66,2.14,6.39,4.84,8.18,8.08v-10.36h9.53v56.77h-9.53v-10.57c-1.87,3.32-4.65,6.06-8.34,8.24-3.7,2.18-8,3.26-12.9,3.26s-9.6-1.24-13.67-3.73c-4.08-2.49-7.29-5.97-9.63-10.46-2.35-4.49-3.52-9.6-3.52-15.33s1.17-10.89,3.52-15.28ZM732.9,127.88c-1.73-3.18-4.06-5.61-6.99-7.3-2.94-1.69-6.16-2.54-9.69-2.54s-6.73.83-9.63,2.49c-2.9,1.66-5.22,4.08-6.94,7.25-1.73,3.18-2.59,6.91-2.59,11.19s.86,8.13,2.59,11.34c1.73,3.21,4.04,5.66,6.94,7.36,2.9,1.69,6.11,2.54,9.63,2.54s6.75-.84,9.69-2.54c2.93-1.69,5.27-4.14,6.99-7.36,1.73-3.21,2.59-6.96,2.59-11.24s-.86-8.01-2.59-11.19Z"/>
      <path class="cls-2" d="M759,123.68c2.35-4.38,5.61-7.79,9.79-10.2,4.18-2.42,8.96-3.63,14.35-3.63,6.98,0,12.72,1.69,17.25,5.08,4.52,3.38,7.51,8.08,8.96,14.09h-10.15c-.97-3.45-2.85-6.18-5.65-8.18-2.8-2-6.27-3-10.41-3-5.39,0-9.74,1.85-13.05,5.54-3.32,3.7-4.97,8.93-4.97,15.69s1.66,12.12,4.97,15.85c3.31,3.73,7.67,5.59,13.05,5.59,4.14,0,7.6-.97,10.36-2.9,2.76-1.93,4.66-4.7,5.7-8.29h10.15c-1.52,5.8-4.56,10.45-9.12,13.93-4.56,3.49-10.26,5.23-17.09,5.23-5.39,0-10.17-1.21-14.35-3.63-4.18-2.42-7.44-5.84-9.79-10.26-2.35-4.42-3.52-9.6-3.52-15.54s1.17-11,3.52-15.38Z"/>
      <path class="cls-2" d="M850.9,167.55l-22.27-25.07v25.07h-9.43v-76.66h9.43v45.06l21.86-25.17h13.16l-26.73,28.28,26.83,28.49h-12.85Z"/>
      <path class="cls-3" d="M870.23,166.52c-1-1.04-1.5-2.31-1.5-3.83s.5-2.78,1.5-3.78,2.26-1.5,3.78-1.5,2.68.5,3.68,1.5c1,1,1.5,2.26,1.5,3.78s-.5,2.8-1.5,3.83c-1,1.04-2.23,1.55-3.68,1.55s-2.78-.52-3.78-1.55Z"/>
      <path class="cls-3" d="M933.91,116.22c4.28,4.18,6.42,10.24,6.42,18.18v33.15h-7.15v-32.32c0-6.15-1.54-10.84-4.61-14.09-3.07-3.25-7.27-4.87-12.59-4.87s-9.81,1.73-13.05,5.18c-3.25,3.45-4.87,8.53-4.87,15.23v30.87h-7.25v-56.56h7.25v9.63c1.8-3.45,4.38-6.09,7.77-7.93,3.38-1.83,7.22-2.75,11.5-2.75,6.77,0,12.29,2.09,16.58,6.27Z"/>
      <path class="cls-3" d="M1005.22,142.07h-46.93c.21,4.28,1.24,7.94,3.11,10.98,1.87,3.04,4.32,5.34,7.36,6.89,3.04,1.55,6.35,2.33,9.95,2.33,4.7,0,8.65-1.14,11.86-3.42s5.34-5.35,6.37-9.22h7.67c-1.38,5.53-4.33,10.03-8.86,13.52-4.52,3.49-10.2,5.23-17.04,5.23-5.32,0-10.08-1.19-14.3-3.57-4.21-2.38-7.51-5.77-9.89-10.15-2.38-4.38-3.57-9.51-3.57-15.38s1.17-11.01,3.52-15.44c2.35-4.42,5.63-7.8,9.84-10.15,4.21-2.35,9.01-3.52,14.4-3.52s10.1,1.18,14.14,3.52c4.04,2.35,7.15,5.51,9.32,9.48,2.17,3.97,3.26,8.37,3.26,13.21,0,2.49-.07,4.39-.21,5.7ZM995.53,125.39c-1.76-2.97-4.16-5.21-7.2-6.73-3.04-1.52-6.35-2.28-9.94-2.28-5.39,0-9.98,1.73-13.78,5.18-3.8,3.45-5.9,8.32-6.32,14.61h39.78c.07-4.21-.78-7.8-2.54-10.77Z"/>
      <path class="cls-3" d="M1024.87,117.1v35.12c0,3.45.66,5.84,1.97,7.15,1.31,1.31,3.63,1.97,6.94,1.97h6.63v6.22h-7.77c-5.11,0-8.91-1.19-11.4-3.57-2.49-2.38-3.73-6.3-3.73-11.76v-35.12h-7.87v-6.11h7.87v-14.19h7.36v14.19h15.54v6.11h-15.54Z"/>
    </g>
  </g>
</svg>